<?xml version="1.0" standalone="no"?>
<!DOCTYPE svg PUBLIC "-//W3C//DTD SVG 20010904//EN"
 "http://www.w3.org/TR/2001/REC-SVG-20010904/DTD/svg10.dtd">
<svg version="1.0" xmlns="http://www.w3.org/2000/svg"
 width="1200.000000pt" height="1200.000000pt" viewBox="0 0 1200.000000 1200.000000"
 preserveAspectRatio="xMidYMid meet">

<g transform="translate(0.000000,1200.000000) scale(0.100000,-0.100000)"
fill="#fff" stroke="none">
<path d="M5764 10587 c-110 -78 -255 -185 -324 -237 -146 -110 -516 -406 -524
-419 -3 -4 -40 -2 -83 5 -273 48 -832 119 -1174 149 l-75 7 -53 -114 c-132
-280 -343 -783 -435 -1040 l-28 -76 -76 -28 c-257 -92 -760 -303 -1040 -435
l-114 -53 7 -75 c30 -342 101 -901 149 -1174 7 -43 9 -80 5 -83 -14 -8 -313
-384 -430 -539 -159 -211 -362 -497 -362 -510 0 -13 203 -299 362 -510 117
-155 416 -531 430 -539 4 -3 2 -40 -5 -83 -48 -273 -119 -832 -149 -1174 l-7
-75 114 -53 c280 -132 783 -343 1040 -435 l76 -28 28 -76 c92 -257 303 -760
435 -1040 l53 -114 75 7 c342 30 901 101 1174 149 43 7 80 9 83 5 8 -14 384
-313 539 -430 211 -159 497 -362 510 -362 13 0 299 203 510 362 155 117 531
416 539 430 3 4 40 2 83 -5 273 -48 832 -119 1174 -149 l75 -7 53 114 c132
280 343 783 435 1040 l28 76 76 28 c257 92 760 303 1040 435 l114 53 -7 75
c-30 342 -101 901 -149 1174 -7 43 -9 80 -5 83 14 8 313 384 430 539 159 211
362 497 362 510 0 13 -203 299 -362 510 -117 155 -416 531 -430 539 -4 3 -2
40 5 83 48 273 119 832 149 1174 l7 75 -114 53 c-280 132 -783 343 -1040 435
l-76 28 -28 76 c-92 257 -303 760 -435 1040 l-53 114 -75 -7 c-342 -30 -901
-101 -1174 -149 -43 -7 -80 -9 -83 -5 -8 14 -384 313 -539 430 -124 94 -472
345 -501 362 -6 4 -101 -58 -210 -136z m383 -115 c6 -53 20 -123 30 -154 11
-32 18 -58 16 -58 -2 0 -54 25 -115 56 l-112 56 -113 -56 c-62 -31 -115 -56
-117 -56 -1 0 6 26 17 58 10 31 24 101 30 154 l12 98 85 59 85 59 85 -59 86
-60 11 -97z m-397 15 c0 -51 -32 -182 -55 -227 -12 -24 -44 -44 -155 -100 -77
-39 -142 -70 -144 -70 -2 0 7 26 19 58 13 31 29 84 35 117 l12 60 136 102 c76
56 140 102 145 102 4 1 7 -19 7 -42z m583 -62 l135 -100 12 -60 c6 -33 22 -86
35 -117 12 -32 21 -58 19 -58 -2 0 -67 31 -144 70 -157 78 -158 80 -191 207
-20 78 -26 167 -10 161 4 -1 69 -48 144 -103z m-318 -112 c26 -12 34 -21 29
-32 -4 -9 -23 -60 -42 -114 -19 -54 -36 -96 -38 -94 -2 1 -18 45 -37 97 -19
52 -37 102 -41 111 -5 11 3 20 26 31 43 22 60 22 103 1z m-614 -100 c-11 -37
-33 -90 -48 -116 -27 -45 -38 -53 -198 -136 -164 -85 -172 -88 -198 -75 l-27
15 33 28 c34 29 292 236 392 314 32 25 61 44 63 42 2 -2 -5 -35 -17 -72z
m1229 -14 c98 -76 280 -222 337 -271 l33 -27 -27 -15 c-26 -13 -34 -10 -198
75 -160 83 -171 91 -197 136 -26 43 -68 160 -68 185 0 7 4 7 13 1 6 -6 55 -43
107 -84z m-750 12 c12 -30 32 -93 46 -140 38 -132 40 -131 88 31 15 48 35 108
46 133 l20 46 172 -89 c95 -49 280 -144 411 -212 130 -67 237 -125 237 -129 0
-3 -155 -93 -345 -199 l-344 -194 -43 45 c-51 53 -99 70 -203 70 -104 0 -152
-17 -203 -70 l-43 -45 -342 193 c-188 105 -344 194 -347 196 -7 6 -2 9 425
230 214 110 393 198 397 195 4 -4 16 -31 28 -61z m-2137 -167 l77 -7 26 -45
c14 -24 57 -77 95 -117 l69 -72 -46 -7 c-26 -3 -72 -6 -103 -6 -91 0 -96 -4
-173 -119 l-71 -105 -13 60 c-13 64 -69 210 -85 220 -9 5 -4 20 50 137 35 76
27 73 174 61z m4631 -91 l43 -92 -34 -68 c-18 -37 -41 -101 -51 -140 -9 -40
-20 -73 -23 -73 -4 0 -35 43 -70 96 -36 56 -73 100 -87 105 -13 5 -49 9 -81 9
-32 0 -79 3 -105 6 l-47 7 65 66 c35 37 78 89 95 116 30 47 34 50 84 56 28 3
78 6 110 5 l59 -1 42 -92z m-4318 58 l161 -19 69 -69 c38 -38 80 -76 94 -85
27 -17 39 -15 -230 -33 l-75 -5 -57 47 c-55 46 -148 155 -148 174 0 12 0 12
186 -10z m4004 10 c0 -19 -93 -128 -148 -174 l-57 -47 -75 5 c-269 18 -257 16
-230 33 14 9 56 47 94 85 l69 69 146 18 c174 21 201 23 201 11z m-3538 -71
c241 -36 357 -55 364 -62 2 -3 -3 -15 -13 -27 -17 -19 -32 -22 -208 -30 l-190
-9 -55 33 c-30 19 -75 54 -100 79 -54 56 -65 56 202 16z m3088 -16 c-25 -25
-70 -60 -100 -79 l-55 -33 -190 9 c-177 8 -191 10 -208 31 -14 17 -15 23 -5
28 11 7 160 31 443 74 50 8 106 14 125 15 l34 1 -44 -46z m-2683 -63 c12 -19
8 -31 -11 -31 -6 0 -11 11 -11 25 0 30 6 32 22 6z m2098 -6 c0 -23 -14 -33
-28 -19 -6 6 14 44 23 44 3 0 5 -11 5 -25z m-1583 -290 c248 -141 454 -257
456 -259 10 -10 -131 -244 -156 -260 -4 -3 -143 143 -307 325 -269 296 -333
359 -323 315 2 -11 513 -580 589 -657 15 -15 13 -20 -34 -68 l-50 -51 -195
196 c-212 212 -400 389 -406 383 -12 -11 -144 -477 -216 -756 -12 -49 -19 -51
-95 -24 -31 11 -49 24 -48 32 1 8 43 201 93 430 49 228 90 423 90 432 0 9 -7
17 -15 17 -8 0 -15 -3 -15 -6 0 -15 -181 -840 -188 -857 -6 -16 -15 -14 -92
23 -109 53 -182 100 -178 114 2 7 122 213 267 459 257 436 265 447 295 447 17
0 38 5 46 10 8 5 18 10 22 10 4 0 211 -115 460 -255z m1570 237 c38 -7 38 -8
303 -456 146 -247 265 -452 265 -457 0 -11 -87 -64 -180 -109 -77 -37 -86 -39
-92 -23 -7 17 -188 842 -188 857 0 3 -7 6 -15 6 -8 0 -15 -8 -15 -17 0 -9 41
-204 90 -432 50 -229 92 -422 93 -430 1 -8 -17 -21 -48 -32 -76 -27 -83 -25
-95 24 -72 279 -204 745 -216 756 -6 6 -194 -171 -406 -384 l-197 -197 -49 53
c-45 48 -48 53 -33 68 77 78 587 646 589 657 10 44 -54 -19 -323 -315 -164
-182 -303 -328 -307 -325 -14 9 -104 146 -133 203 -21 43 -24 56 -13 62 7 5
211 121 453 258 309 176 446 248 460 245 11 -3 37 -9 57 -12z m-3442 -182 c21
-104 21 -105 -75 -253 l-90 -139 -7 64 c-3 34 -16 91 -27 124 l-22 61 73 168
73 168 31 -69 c18 -38 37 -94 44 -124z m4944 11 l67 -153 -22 -62 c-11 -33
-24 -90 -27 -124 l-7 -64 -90 139 c-97 150 -98 153 -74 258 16 70 67 181 78
169 5 -5 39 -78 75 -163z m-3687 144 c-8 -18 -386 -658 -396 -668 -4 -4 -22 0
-40 9 -43 21 -133 15 -190 -13 l-42 -21 7 47 c14 101 74 315 119 423 52 128
55 139 37 145 -24 9 -125 -261 -162 -438 -13 -57 -24 -109 -26 -116 -2 -7 -38
0 -111 23 -183 59 -463 108 -478 84 -4 -6 -5 -14 -2 -16 3 -3 52 -11 110 -19
57 -8 145 -23 193 -35 106 -24 304 -89 304 -98 0 -4 -16 -17 -34 -29 -49 -31
-85 -83 -98 -140 l-12 -50 -156 -6 c-182 -8 -640 -9 -640 -2 0 8 480 757 496
774 5 6 100 -70 179 -144 38 -35 73 -61 77 -57 5 5 0 42 -11 83 -21 83 -46
227 -40 233 2 2 144 11 314 20 171 9 335 18 365 19 30 2 97 4 149 5 78 2 92 0
88 -13z m2893 -11 c162 -9 297 -18 299 -20 6 -6 -19 -150 -40 -233 -11 -41
-16 -78 -11 -83 4 -4 39 22 77 57 79 74 174 150 179 144 16 -17 496 -766 496
-774 0 -7 -458 -6 -640 2 l-156 6 -12 50 c-13 57 -49 109 -98 140 -18 12 -34
25 -34 29 0 9 198 74 304 98 48 12 136 27 193 35 58 8 107 16 110 19 3 2 2 10
-2 16 -15 24 -295 -25 -478 -84 -73 -23 -109 -30 -111 -23 -2 7 -13 59 -26
116 -37 177 -138 447 -162 438 -18 -6 -15 -17 37 -145 45 -110 106 -328 118
-423 l6 -46 -41 20 c-56 28 -147 34 -189 13 -18 -9 -36 -13 -40 -9 -11 11
-389 650 -396 670 -7 18 49 17 617 -13z m-3834 -99 c6 -38 15 -90 19 -115 l8
-44 -64 56 c-35 31 -77 67 -92 80 l-28 23 26 38 c25 36 29 38 73 35 l46 -3 12
-70z m4289 38 l26 -38 -28 -23 c-15 -13 -57 -49 -92 -80 -62 -54 -64 -55 -59
-26 3 16 11 63 18 104 17 105 14 100 64 100 41 0 48 -4 71 -37z m-2097 -189
c41 -17 92 -61 92 -79 0 -7 -21 -23 -46 -36 l-45 -24 -21 25 c-52 65 -70 80
-93 80 -23 0 -41 -15 -93 -80 l-21 -25 -45 24 c-25 13 -46 29 -46 36 0 17 51
62 90 79 47 21 179 21 228 0z m-69 -106 c17 -23 30 -46 28 -51 -1 -4 -18 -17
-38 -28 l-35 -21 -37 22 c-20 12 -37 25 -37 29 0 15 62 91 75 91 7 0 27 -19
44 -42z m-669 -267 l255 -251 -25 -24 c-44 -43 -173 -130 -252 -170 -69 -35
-86 -39 -171 -44 -83 -4 -277 11 -312 24 -17 7 58 302 166 657 l30 98 27 -20
c15 -10 142 -132 282 -270z m1624 74 c97 -334 146 -533 131 -539 -35 -13 -229
-28 -312 -24 -85 5 -102 9 -171 44 -77 39 -207 127 -250 168 l-23 22 87 93
c48 50 172 173 277 273 139 133 192 177 197 167 5 -8 33 -100 64 -204z m-3610
136 c9 -39 16 -94 16 -123 0 -50 -6 -62 -103 -215 -94 -149 -105 -162 -134
-165 -18 -2 -33 -3 -33 -1 0 4 127 332 180 466 24 59 47 107 51 107 4 0 15
-31 23 -69z m5274 17 c161 -413 202 -518 202 -521 0 -2 -15 -1 -32 1 -30 3
-41 16 -135 165 -97 153 -103 165 -103 215 0 59 27 192 39 192 5 0 17 -24 29
-52z m-2646 -90 c9 9 20 -4 51 -61 52 -97 117 -186 193 -267 l63 -67 -34 -33
c-39 -38 -64 -36 -114 6 -37 31 -120 193 -147 287 -10 37 -23 67 -29 67 -6 0
-19 -30 -29 -67 -27 -94 -110 -256 -147 -287 -50 -42 -75 -44 -114 -6 l-34 33
70 75 c72 77 161 203 200 284 19 40 24 45 40 35 14 -9 21 -9 31 1z m53 -328
c40 -80 80 -126 126 -146 l39 -18 -37 -38 c-20 -21 -40 -38 -43 -38 -3 0 -39
45 -80 100 -41 55 -74 100 -75 100 -1 0 -34 -45 -75 -100 -41 -55 -77 -100
-80 -100 -3 0 -23 17 -43 38 l-37 38 39 18 c22 9 54 35 71 56 32 41 103 185
116 234 7 28 8 27 29 -30 12 -33 35 -84 50 -114z m-1659 135 l36 -15 -27 -47
c-16 -27 -29 -49 -29 -50 -1 -1 -30 9 -64 23 -94 38 -112 26 -127 -83 l-7 -53
-54 0 c-54 0 -54 0 -54 30 0 57 42 111 124 160 83 50 142 60 202 35z m3367
-29 c93 -52 137 -105 137 -165 0 -31 0 -31 -54 -31 l-54 0 -7 53 c-15 109 -33
121 -127 83 -34 -14 -63 -24 -64 -23 0 1 -13 23 -29 50 l-27 47 34 15 c49 23
118 12 191 -29z m-3456 -93 c24 -10 43 -22 43 -27 0 -5 -9 -24 -21 -42 -19
-31 -25 -34 -68 -34 l-47 0 3 38 c9 91 15 95 90 65z m3437 -5 c3 -13 7 -40 9
-60 l3 -38 -47 0 c-43 0 -49 3 -68 34 -12 18 -21 37 -21 42 0 12 69 42 97 43
16 1 24 -6 27 -21z m-2003 -209 l68 -76 -200 -259 c-110 -142 -206 -260 -212
-262 -11 -2 -311 116 -532 210 -93 40 -90 30 -54 185 l22 95 36 -6 c20 -4 115
-9 212 -12 l176 -6 99 50 c54 28 140 82 189 120 104 80 85 84 196 -39z m873
-81 l99 -50 176 6 c97 3 192 8 212 12 l36 6 22 -95 c36 -155 39 -145 -54 -185
-221 -94 -521 -212 -532 -210 -6 2 -102 120 -212 263 l-201 259 37 41 c21 22
60 63 87 92 l48 51 92 -69 c50 -38 136 -93 190 -121z m-2205 148 c96 -58 180
-97 285 -131 109 -36 107 -34 91 -102 -7 -28 -57 -39 -113 -24 -51 14 -167 91
-250 166 -35 32 -66 55 -69 52 -3 -4 2 -37 12 -74 19 -75 31 -251 21 -307 -4
-19 -18 -49 -31 -65 -24 -28 -26 -29 -68 -16 -25 7 -41 18 -40 26 1 8 11 61
23 119 14 70 22 147 23 232 2 111 4 128 18 128 9 0 19 7 23 15 7 20 11 20 75
-19z m1621 -27 c0 -4 -10 -30 -23 -58 l-23 -52 -23 55 -23 56 23 31 22 32 24
-29 c12 -16 23 -32 23 -35z m1606 46 c4 -8 14 -15 23 -15 14 0 16 -17 18 -128
1 -85 9 -162 23 -232 12 -58 22 -111 23 -119 1 -8 -15 -19 -40 -26 -42 -13
-44 -12 -68 16 -13 16 -27 46 -31 65 -10 56 2 232 21 307 10 37 15 70 12 74
-3 3 -34 -20 -69 -52 -83 -75 -199 -152 -250 -166 -56 -15 -106 -4 -113 24
-16 68 -18 66 91 102 98 32 218 88 299 139 47 30 54 31 61 11z m-4487 -27 c11
-3 11 -6 -1 -15 -10 -9 -16 -6 -25 13 -9 20 -9 23 0 16 7 -5 18 -11 26 -14z
m5698 -2 c-9 -18 -15 -22 -25 -14 -10 9 -8 14 10 23 13 7 24 13 25 14 0 1 -4
-10 -10 -23z m-5755 -18 c-3 -30 -16 -41 -165 -135 -153 -97 -165 -103 -215
-103 -58 0 -192 27 -192 39 0 7 89 43 515 210 65 26 62 26 57 -11z m1166 -118
c-3 -83 -7 -152 -9 -155 -3 -2 -194 56 -424 130 -231 74 -426 135 -432 135 -7
0 -13 -7 -13 -15 0 -8 2 -15 5 -15 7 0 849 -270 852 -274 5 -4 -22 -125 -29
-131 -2 -3 -67 13 -145 35 -157 44 -453 119 -584 148 l-86 19 19 -86 c29 -131
104 -427 148 -584 22 -78 38 -143 35 -145 -6 -7 -127 -34 -131 -29 -4 3 -274
845 -274 852 0 3 -7 5 -15 5 -8 0 -15 -6 -15 -12 0 -7 61 -202 135 -433 74
-230 132 -421 130 -424 -3 -2 -73 -6 -156 -9 l-151 -5 4 525 3 525 41 41 c34
35 48 41 90 45 27 2 264 4 528 5 l479 2 -5 -150z m4543 101 l44 -44 3 -525 4
-525 -151 5 c-83 3 -153 7 -156 9 -2 3 56 194 130 424 74 231 135 426 135 433
0 6 -7 12 -15 12 -8 0 -15 -2 -15 -5 0 -7 -270 -849 -274 -852 -4 -5 -125 22
-131 29 -3 2 13 67 35 145 44 157 119 453 148 584 l19 86 -86 -19 c-131 -29
-427 -104 -584 -148 -78 -22 -143 -38 -145 -35 -7 6 -34 127 -29 131 3 4 845
274 852 274 3 0 5 7 5 15 0 8 -6 15 -12 15 -7 0 -202 -61 -433 -135 -230 -74
-421 -132 -424 -130 -2 3 -6 73 -9 156 l-5 151 525 -4 525 -3 44 -44z m256
-20 c306 -118 393 -154 393 -162 0 -12 -134 -39 -192 -39 -50 0 -62 6 -215
103 -149 94 -162 105 -165 135 -2 17 -3 32 -1 32 1 0 83 -31 180 -69z m-3124
-39 c8 -20 20 -56 26 -80 17 -61 36 -53 60 26 28 91 36 103 55 77 8 -11 21
-29 29 -40 14 -18 10 -24 -51 -93 l-67 -73 -66 73 -67 73 27 37 c14 21 29 38
32 38 4 0 14 -17 22 -38z m-2843 -244 c0 -134 -3 -313 -7 -398 l-6 -156 -50
-12 c-57 -13 -109 -49 -140 -98 -12 -18 -25 -34 -29 -34 -9 0 -74 198 -98 304
-12 48 -27 136 -35 193 -8 58 -16 107 -19 110 -2 3 -10 2 -16 -2 -24 -15 25
-295 84 -478 23 -73 30 -109 23 -111 -7 -2 -59 -13 -116 -26 -177 -37 -447
-138 -438 -162 6 -18 17 -15 145 37 108 45 322 105 423 119 l47 7 -21 -42
c-28 -57 -34 -147 -13 -190 9 -18 13 -36 9 -40 -11 -11 -650 -389 -670 -396
-15 -6 -15 9 -9 158 11 274 38 754 42 758 6 6 150 -19 233 -40 41 -11 78 -16
83 -11 4 4 -22 39 -57 77 -74 79 -150 174 -144 179 3 3 442 287 684 443 44 28
83 52 88 52 4 1 7 -108 7 -241z m5967 135 c177 -112 595 -383 602 -389 6 -5
-70 -100 -144 -179 -35 -38 -61 -73 -57 -77 5 -5 42 0 83 11 83 21 227 46 233
40 4 -4 31 -484 42 -758 6 -149 6 -164 -9 -158 -20 7 -659 385 -670 396 -4 4
0 22 9 40 21 43 15 133 -13 190 l-21 42 47 -7 c101 -14 315 -74 423 -119 128
-52 139 -55 145 -37 9 24 -261 125 -438 162 -57 13 -109 24 -116 26 -7 2 0 38
23 111 59 183 108 463 84 478 -6 4 -14 5 -16 2 -3 -3 -11 -52 -19 -110 -8 -57
-23 -145 -35 -193 -24 -106 -89 -304 -98 -304 -4 0 -17 16 -29 34 -31 49 -83
85 -140 98 l-50 12 -6 156 c-8 182 -9 640 -2 640 3 0 80 -48 172 -107z m-4580
32 c92 -74 163 -108 234 -113 l58 -4 -6 -32 c-16 -81 -5 -79 -132 -24 -63 27
-117 45 -121 41 -4 -4 -13 -61 -20 -125 -7 -65 -16 -118 -20 -118 -4 0 -22 5
-41 11 -19 6 -40 13 -47 15 -10 3 -9 11 6 32 34 46 45 109 38 207 -4 50 -10
107 -15 128 -5 20 -7 37 -5 37 2 0 34 -25 71 -55z m3082 18 c-5 -21 -11 -78
-15 -128 -7 -98 4 -161 38 -207 15 -21 16 -29 6 -32 -7 -2 -28 -9 -47 -15 -19
-6 -37 -11 -41 -11 -4 0 -13 53 -20 118 -7 64 -16 121 -20 125 -4 4 -58 -14
-121 -41 -127 -55 -116 -57 -132 24 l-6 32 58 4 c72 5 143 40 231 113 36 29
68 54 71 54 4 1 3 -16 -2 -36z m-1574 -173 c2 0 37 38 78 84 l75 85 27 -35
c30 -39 29 -65 -7 -184 -22 -71 -115 -258 -152 -303 l-23 -29 -35 54 c-78 117
-144 275 -163 385 -6 36 -3 47 20 77 l27 35 75 -85 c41 -46 76 -84 78 -84z
m-3460 69 c33 -12 89 -24 123 -28 l64 -6 -139 -90 c-103 -67 -146 -89 -168
-88 -61 4 -142 25 -209 57 l-69 31 164 72 c90 40 166 72 169 72 3 1 33 -8 65
-20z m7137 -45 c84 -36 157 -70 162 -75 12 -11 -99 -62 -169 -78 -105 -24
-108 -23 -258 74 l-139 90 64 7 c34 3 88 15 118 26 30 11 58 21 62 21 4 1 76
-29 160 -65z m-3877 -89 c32 -105 91 -223 152 -307 51 -69 51 -70 117 31 73
111 133 250 160 374 6 26 16 16 148 -155 78 -101 154 -199 170 -219 l29 -36
252 103 c139 56 253 101 255 99 1 -1 -6 -36 -17 -76 -29 -105 -44 -250 -36
-339 8 -95 14 -120 29 -120 20 0 185 88 239 127 29 20 84 68 124 106 68 65 72
68 77 46 3 -13 19 -127 36 -254 17 -126 33 -238 36 -247 7 -23 7 -23 269 -58
127 -17 241 -33 254 -36 22 -5 19 -9 -46 -77 -38 -40 -86 -95 -106 -124 -39
-54 -127 -219 -127 -239 0 -15 25 -21 120 -29 89 -8 234 7 339 36 40 11 75 18
76 17 2 -2 -43 -116 -99 -255 l-103 -252 36 -29 c20 -16 118 -92 219 -170 171
-132 181 -142 155 -148 -133 -29 -300 -104 -405 -181 -69 -51 -70 -51 31 -117
111 -73 250 -133 374 -160 26 -6 16 -16 -155 -148 -101 -78 -199 -154 -219
-170 l-36 -29 103 -252 c56 -139 101 -253 99 -255 -1 -1 -36 6 -76 17 -105 29
-250 44 -339 36 -95 -8 -120 -14 -120 -29 0 -20 88 -185 127 -239 20 -29 68
-84 106 -124 65 -68 68 -72 46 -77 -13 -3 -127 -19 -254 -36 -126 -17 -238
-33 -247 -36 -23 -7 -23 -7 -58 -269 -17 -126 -33 -241 -36 -254 -5 -22 -9
-19 -77 46 -40 38 -95 86 -124 106 -54 39 -219 127 -239 127 -15 0 -21 -25
-29 -120 -8 -89 7 -234 36 -339 11 -40 18 -75 17 -76 -2 -2 -116 43 -255 99
l-252 103 -29 -36 c-16 -20 -92 -118 -170 -219 -132 -171 -142 -181 -148 -155
-27 124 -87 263 -160 374 -66 101 -66 100 -117 31 -77 -105 -152 -272 -181
-405 -6 -26 -16 -16 -148 155 -78 101 -154 199 -170 219 l-29 36 -252 -103
c-139 -56 -253 -101 -255 -99 -1 1 6 36 17 76 29 105 44 250 36 339 -8 95 -14
120 -29 120 -20 0 -185 -88 -239 -127 -29 -20 -84 -68 -124 -106 -68 -65 -72
-68 -77 -46 -3 13 -19 128 -36 254 -17 127 -33 238 -36 247 -7 23 -7 23 -269
58 -126 17 -241 33 -254 36 -22 5 -19 9 46 77 38 40 86 95 106 124 39 54 127
219 127 239 0 15 -25 21 -120 29 -89 8 -234 -7 -339 -36 -40 -11 -75 -18 -76
-17 -2 2 43 116 99 255 l103 252 -36 29 c-20 16 -118 92 -219 170 -171 132
-181 142 -155 148 124 27 263 87 374 160 101 66 100 66 31 117 -105 77 -272
152 -405 181 -26 6 -16 16 155 148 101 78 199 154 219 170 l36 29 -103 252
c-56 139 -101 253 -99 255 1 1 36 -6 76 -17 105 -29 250 -44 339 -36 95 8 120
14 120 29 0 20 -88 185 -127 239 -20 29 -68 84 -106 124 -65 68 -68 72 -46 77
13 3 128 19 254 36 127 17 238 33 247 36 23 7 23 7 58 269 17 127 33 241 36
254 5 22 9 19 77 -46 40 -38 95 -86 124 -106 54 -39 219 -127 239 -127 15 0
21 25 29 120 8 89 -7 234 -36 339 -11 40 -18 75 -17 76 2 2 117 -43 256 -100
l252 -102 148 191 c82 105 157 203 168 218 22 31 18 38 59 -97z m-2084 25
c203 -51 325 -83 473 -127 14 -4 17 -11 12 -34 -9 -46 -72 -176 -128 -265 -45
-72 -60 -87 -132 -132 -89 -56 -219 -119 -265 -128 -23 -5 -30 -2 -34 12 -55
188 -187 699 -187 725 0 13 -1 14 261 -51z m4829 51 c0 -26 -132 -537 -187
-725 -4 -14 -11 -17 -34 -12 -46 9 -176 72 -265 128 -72 45 -87 60 -132 132
-73 116 -153 296 -131 296 2 0 36 9 74 21 92 27 646 168 663 169 6 0 12 -4 12
-9z m-3954 -43 c30 -11 34 -16 40 -65 3 -30 4 -56 2 -58 -2 -3 -23 9 -46 26
-37 27 -42 35 -42 70 0 43 0 44 46 27z m2864 -27 c0 -35 -5 -43 -42 -70 -23
-17 -44 -29 -46 -26 -2 2 -1 28 2 58 6 46 11 55 34 64 46 19 52 16 52 -26z
m-5219 -77 c24 -8 71 -21 104 -28 l59 -13 -105 -71 c-115 -77 -119 -82 -119
-173 0 -31 -3 -77 -6 -103 l-7 -46 -72 69 c-40 38 -93 81 -118 95 l-45 27 -7
105 c-4 58 -4 108 -1 112 4 4 48 25 98 48 l90 42 42 -24 c23 -13 62 -31 87
-40z m2483 49 c28 -13 34 -21 31 -37 -7 -32 -35 -167 -35 -171 0 -3 -181 55
-188 60 -6 6 10 95 17 95 4 0 36 -25 70 -56 36 -33 66 -53 71 -48 5 5 2 33 -6
64 -16 63 -18 110 -4 110 5 0 25 -8 44 -17z m2616 -11 c0 -15 -6 -52 -14 -82
-8 -31 -11 -59 -6 -64 5 -5 35 15 71 48 34 31 66 56 70 56 7 0 23 -89 17 -95
-2 -1 -44 -16 -95 -33 l-92 -30 -11 56 c-7 32 -16 75 -20 97 -5 22 -8 40 -7
41 14 10 65 33 75 34 7 0 12 -12 12 -28z m2683 -31 c76 -35 73 -27 61 -174
l-7 -77 -45 -26 c-24 -14 -77 -57 -117 -95 l-72 -69 -7 46 c-3 26 -6 72 -6
103 0 91 -4 96 -119 173 l-105 71 60 13 c64 13 210 69 220 85 5 9 20 4 137
-50z m-5184 -7 c38 -15 40 -19 60 -92 32 -124 41 -189 41 -309 0 -88 -3 -115
-14 -119 -36 -14 -243 121 -346 227 -64 65 -65 68 -62 113 2 25 7 46 11 46 4
0 54 -16 111 -35 57 -19 104 -34 105 -32 1 1 10 43 19 92 19 100 25 125 31
125 3 0 22 -7 44 -16z m2385 -1 c3 -10 13 -58 22 -108 9 -49 18 -91 19 -92 1
-2 48 13 105 32 57 19 107 35 111 35 4 0 9 -21 11 -46 3 -45 2 -48 -62 -113
-103 -106 -310 -241 -346 -227 -11 4 -14 31 -14 118 0 125 8 189 40 307 21 75
24 81 58 95 48 19 50 19 56 -1z m-2741 -123 c12 -11 -72 -642 -87 -656 -14
-15 -645 -99 -656 -87 -5 4 -24 58 -43 120 l-35 111 85 33 c94 36 252 125 296
167 42 39 138 206 176 304 l33 86 111 -35 c62 -19 116 -38 120 -43z m3311 -15
c42 -104 132 -258 173 -297 44 -42 202 -131 296 -167 l85 -33 -35 -111 c-19
-62 -38 -116 -43 -120 -11 -12 -642 72 -656 87 -15 14 -99 645 -87 656 7 7
225 79 230 76 0 -1 17 -41 37 -91z m-5396 -134 l56 -64 -44 8 c-25 4 -76 13
-115 19 l-70 12 -3 46 c-3 44 -1 48 35 73 l38 26 23 -28 c13 -15 49 -57 80
-92z m7365 86 c25 -17 28 -24 25 -65 l-3 -46 -70 -12 c-38 -6 -90 -15 -115
-19 l-45 -8 41 44 c22 24 58 65 78 91 22 27 43 45 50 41 6 -3 24 -15 39 -26z
m-7747 -152 c33 -25 80 -71 107 -103 l47 -57 -5 -75 c-18 -269 -16 -257 -33
-230 -9 14 -47 56 -85 94 l-69 69 -19 161 c-22 186 -22 186 -10 186 5 0 35
-20 67 -45z m8054 33 c0 -7 -9 -85 -19 -174 l-19 -161 -69 -69 c-38 -38 -76
-80 -85 -94 -17 -27 -15 -39 -33 230 l-5 75 47 57 c46 55 155 148 174 148 5 0
9 -6 9 -12z m-6970 -222 l0 -54 -52 -7 c-110 -15 -122 -33 -84 -127 14 -34 24
-63 23 -64 -1 0 -23 -13 -50 -29 l-47 -27 -16 38 c-22 52 -12 112 30 188 51
91 104 135 164 136 l32 0 0 -54z m5893 43 c40 -21 78 -63 113 -125 42 -76 52
-136 30 -188 l-16 -38 -47 27 c-27 16 -49 29 -50 29 -1 1 9 30 23 64 38 94 26
112 -83 127 l-53 7 0 54 c0 54 0 54 31 54 17 0 40 -5 52 -11z m-5893 -178 c0
-45 -3 -51 -34 -70 -18 -12 -37 -21 -42 -21 -11 0 -44 78 -44 102 0 18 18 25
80 31 19 2 36 5 38 5 1 1 2 -20 2 -47z m5908 33 c12 -2 22 -12 22 -22 0 -24
-33 -102 -44 -102 -5 0 -24 9 -42 21 -31 19 -34 25 -34 68 l0 47 38 -3 c20 -2
47 -6 60 -9z m-5363 -62 c13 -41 12 -43 -16 -67 -16 -13 -46 -27 -65 -31 -56
-10 -232 2 -307 21 -37 10 -70 15 -74 12 -3 -3 20 -34 52 -69 75 -83 152 -199
166 -250 15 -56 4 -106 -24 -113 -68 -16 -66 -18 -102 91 -35 106 -73 189
-133 288 -32 53 -34 60 -19 71 10 7 17 18 17 26 0 11 26 14 128 16 114 1 323
31 340 48 12 12 26 -3 37 -43z m4870 16 c63 -12 147 -20 227 -21 102 -2 128
-5 128 -16 0 -8 7 -19 17 -26 15 -11 13 -18 -19 -71 -60 -99 -98 -182 -133
-288 -36 -109 -34 -107 -102 -91 -28 7 -39 57 -24 113 14 51 91 167 166 250
32 35 55 66 52 69 -4 3 -37 -2 -74 -12 -75 -19 -251 -31 -307 -21 -19 4 -49
18 -65 32 -27 22 -29 28 -19 57 5 18 12 38 14 46 3 8 11 10 22 6 9 -4 62 -16
117 -27z m-6400 -168 l33 -55 -9 -190 c-8 -176 -11 -191 -30 -208 -12 -10 -24
-15 -27 -13 -9 10 -92 537 -92 588 0 20 5 17 46 -22 25 -25 60 -70 79 -100z
m7890 -2 c-32 -222 -66 -433 -73 -451 -7 -18 -8 -18 -30 0 -21 17 -23 30 -31
208 l-9 190 30 50 c40 66 122 151 126 131 2 -8 -4 -66 -13 -128z m-6897 25
c17 -27 49 -86 72 -133 37 -77 39 -86 23 -92 -17 -7 -842 -188 -857 -188 -3 0
-6 -7 -6 -15 0 -8 8 -15 17 -15 9 0 204 41 432 90 229 50 422 92 430 93 8 1
21 -17 32 -48 27 -76 25 -83 -23 -95 -280 -72 -746 -204 -757 -216 -6 -6 171
-194 383 -406 l196 -195 -51 -50 c-48 -47 -53 -49 -68 -34 -77 76 -646 587
-657 589 -44 10 19 -54 315 -323 182 -164 328 -303 325 -307 -16 -25 -250
-166 -260 -156 -2 2 -119 208 -259 457 -232 411 -255 456 -246 480 6 14 11 38
13 53 3 25 46 54 448 292 245 145 450 264 456 265 7 1 26 -20 42 -46z m580 -9
c7 -23 12 -44 12 -46 0 -3 -53 -11 -117 -18 -65 -7 -122 -16 -126 -20 -4 -4
14 -58 41 -121 55 -127 57 -116 -24 -132 l-32 -6 -4 58 c-5 71 -39 142 -113
234 -30 37 -55 69 -55 71 0 2 17 0 38 -5 128 -29 278 -20 332 21 29 22 33 19
48 -36z m4752 6 c47 -13 189 -8 263 9 20 5 37 7 37 5 0 -2 -25 -34 -55 -71
-74 -92 -108 -163 -113 -234 l-4 -58 -32 6 c-81 16 -79 5 -24 132 27 63 45
117 41 121 -4 4 -61 13 -125 20 -65 7 -118 16 -118 20 0 4 5 22 11 41 6 19 13
40 15 47 3 10 11 9 32 -6 15 -11 47 -25 72 -32z m963 -219 c420 -248 447 -266
447 -292 0 -15 5 -39 11 -52 10 -21 -16 -71 -246 -477 -140 -250 -257 -456
-259 -458 -10 -10 -244 131 -260 156 -3 4 143 143 325 307 296 269 359 333
315 323 -11 -2 -579 -512 -657 -589 -15 -15 -20 -12 -68 33 l-53 49 197 197
c214 214 390 400 384 406 -11 12 -477 144 -756 216 -49 12 -51 19 -24 95 11
31 24 49 32 48 8 -1 201 -43 430 -93 228 -49 423 -90 432 -90 9 0 17 7 17 15
0 8 -3 15 -6 15 -15 0 -840 181 -857 188 -16 6 -14 15 23 92 53 109 100 182
114 178 7 -2 213 -122 459 -267z m-5426 6 c95 -119 169 -246 159 -273 -4 -11
-31 -14 -119 -14 -120 0 -185 9 -309 41 -74 20 -77 22 -93 61 -11 29 -13 43
-5 48 6 4 56 15 111 25 54 10 99 19 99 20 0 0 -16 48 -35 105 -19 57 -35 107
-35 111 0 4 19 9 43 11 36 3 48 -2 88 -35 25 -21 68 -66 96 -100z m4283 124
c0 -4 -16 -54 -35 -111 -19 -57 -35 -105 -35 -105 0 -1 45 -10 99 -20 55 -10
105 -21 111 -25 8 -5 6 -19 -5 -48 -16 -39 -19 -41 -93 -61 -124 -32 -189 -41
-309 -41 -88 0 -115 3 -119 14 -14 36 121 243 227 346 65 64 68 65 113 62 25
-2 46 -7 46 -11z m-4513 -96 c17 -52 30 -95 28 -95 -4 0 -140 -28 -171 -35
-16 -3 -24 3 -37 31 -9 19 -17 39 -17 44 0 14 47 12 110 -4 31 -8 59 -11 64
-6 5 5 -15 35 -48 71 -31 34 -56 66 -56 70 0 4 12 10 28 12 69 10 65 14 99
-88z m4606 89 c20 -4 37 -10 37 -14 0 -3 -25 -35 -56 -69 -33 -36 -53 -66 -48
-71 5 -5 33 -2 64 6 63 16 110 18 110 4 0 -5 -8 -25 -17 -44 -13 -28 -21 -34
-37 -31 -31 7 -167 35 -171 35 -2 0 11 43 28 95 17 52 36 95 42 95 5 0 27 -3
48 -6z m-4744 -56 c17 -23 29 -44 26 -46 -2 -2 -28 -1 -58 2 -49 6 -54 10 -65
40 -17 46 -16 46 27 46 35 0 43 -5 70 -42z m4901 35 c0 -4 -5 -21 -12 -39 -11
-30 -16 -34 -65 -40 -30 -3 -56 -4 -58 -2 -3 2 9 23 26 46 27 37 35 42 70 42
21 0 39 -3 39 -7z m-4912 -328 c102 -241 212 -521 210 -532 -2 -6 -120 -102
-263 -212 l-259 -201 -41 37 c-22 21 -63 60 -92 87 l-51 48 69 92 c38 50 92
134 119 188 l50 96 0 136 c0 74 -5 169 -11 211 -6 42 -10 78 -8 80 7 7 213 54
229 52 8 -1 29 -38 48 -82z m4995 54 l99 -22 -6 -36 c-4 -20 -9 -115 -12 -212
l-6 -176 50 -99 c28 -54 83 -140 121 -190 l69 -92 -51 -48 c-29 -27 -70 -66
-92 -87 l-41 -37 -259 201 c-143 110 -262 205 -263 210 -4 10 41 125 160 414
89 215 85 208 111 202 12 -3 66 -15 120 -28z m-5293 -158 c7 -58 10 -147 8
-198 -5 -85 -9 -102 -44 -171 -39 -77 -127 -207 -168 -250 l-22 -23 -93 87
c-50 48 -173 172 -273 277 -133 139 -177 192 -167 197 21 12 372 114 564 163
119 31 172 41 177 33 3 -6 12 -58 18 -115z m5965 -17 c104 -31 196 -59 204
-64 10 -5 -34 -58 -167 -197 -100 -105 -223 -229 -273 -277 l-93 -87 -22 23
c-41 43 -129 173 -168 250 -35 69 -39 86 -44 171 -4 83 11 277 24 312 6 15
205 -34 539 -131z m-7135 50 c0 -19 -12 -23 -31 -11 -26 16 -24 22 6 22 14 0
25 -5 25 -11z m7800 6 c0 -9 -38 -29 -44 -23 -14 14 -4 28 19 28 14 0 25 -2
25 -5z m-7846 -47 c13 -26 10 -34 -75 -198 -83 -160 -91 -171 -136 -198 -46
-26 -180 -73 -188 -65 -5 4 373 486 382 488 1 0 9 -12 17 -27z m8032 -188
c185 -232 213 -269 209 -273 -8 -8 -141 38 -188 65 -45 27 -53 38 -136 198
-85 164 -88 172 -75 198 l15 27 28 -33 c15 -17 81 -99 147 -182z m-7798 -230
l194 -344 -45 -43 c-53 -51 -70 -99 -70 -203 0 -104 17 -152 70 -203 l45 -43
-194 -344 c-106 -190 -196 -345 -199 -345 -4 0 -62 107 -129 238 -68 130 -163
315 -212 410 l-89 172 46 20 c25 11 85 31 133 46 48 14 98 30 112 36 24 9 24
10 5 24 -10 8 -24 14 -31 14 -18 0 -167 48 -220 71 l-45 19 89 172 c49 95 144
280 212 411 67 130 125 237 129 237 3 0 93 -155 199 -345z m7702 108 c68 -131
163 -316 212 -411 l89 -172 -45 -19 c-53 -23 -202 -71 -220 -71 -7 0 -21 -6
-31 -14 -19 -14 -19 -15 5 -24 14 -6 64 -22 112 -36 48 -15 108 -35 133 -46
l46 -20 -89 -172 c-49 -95 -144 -280 -212 -410 -67 -131 -125 -238 -129 -238
-3 0 -93 155 -199 345 l-194 344 45 43 c53 51 70 99 70 203 0 104 -17 152 -70
203 l-45 43 194 344 c106 190 196 345 199 345 4 0 62 -107 129 -237z m-8209
-272 c-80 -158 -81 -159 -208 -192 -78 -20 -167 -26 -161 -10 2 4 48 69 103
143 l99 136 76 16 c41 9 93 25 115 35 22 10 41 17 43 16 2 -2 -29 -66 -67
-144z m8494 89 l60 -12 100 -135 c55 -75 102 -140 103 -144 6 -16 -83 -10
-161 10 -127 33 -129 34 -207 191 -39 77 -70 142 -70 144 0 2 26 -7 58 -19 31
-13 84 -29 117 -35z m-7169 -283 c-3 -14 -18 -39 -32 -56 -31 -37 -193 -120
-286 -147 -38 -10 -68 -23 -68 -29 0 -6 30 -19 68 -29 93 -27 255 -110 286
-147 42 -50 44 -75 6 -114 l-33 -34 -67 63 c-81 76 -170 141 -267 193 -57 31
-70 42 -61 51 10 10 10 17 1 31 -10 16 -5 21 35 40 81 39 208 129 284 200 l73
70 34 -34 c27 -26 32 -38 27 -58z m5995 -80 c35 -25 96 -62 135 -84 61 -33 70
-40 60 -55 -8 -13 -7 -21 2 -30 9 -9 -4 -20 -61 -51 -97 -52 -186 -117 -267
-193 l-67 -63 -33 34 c-38 39 -36 64 6 114 31 37 193 120 287 147 37 10 67 23
67 29 0 6 -30 19 -67 29 -94 27 -256 110 -287 147 -42 50 -44 75 -6 114 l33
34 67 -63 c37 -35 96 -83 131 -109z m-7477 -38 l-56 -113 56 -113 c31 -62 56
-115 56 -117 0 -1 -26 6 -57 17 -32 10 -102 24 -155 30 l-98 12 -59 85 -59 85
59 85 60 86 97 11 c53 6 122 20 152 30 30 10 56 18 58 17 2 -1 -22 -53 -54
-115z m1596 41 c0 -3 -45 -39 -100 -80 -55 -41 -100 -74 -100 -75 0 -1 45 -34
100 -75 55 -41 100 -77 100 -80 0 -3 -17 -23 -38 -43 l-38 -37 -18 39 c-9 22
-35 54 -56 71 -41 32 -185 103 -234 116 -28 7 -27 8 30 29 147 55 233 113 260
176 l18 39 38 -37 c21 -20 38 -40 38 -43z m5659 -29 c43 -34 123 -75 205 -106
57 -21 58 -22 30 -29 -49 -13 -193 -84 -234 -116 -21 -17 -47 -49 -56 -71
l-18 -39 -38 37 c-21 20 -38 40 -38 43 0 3 45 39 100 80 55 41 97 77 92 80 -4
4 -45 35 -92 70 -47 35 -89 67 -95 72 -5 5 7 24 30 48 l39 40 19 -40 c11 -22
36 -53 56 -69z m1603 56 l97 -11 60 -86 59 -85 -59 -85 -59 -85 -98 -12 c-53
-6 -123 -20 -154 -30 -32 -11 -58 -18 -58 -17 0 2 25 55 56 117 l56 113 -56
112 c-31 61 -56 113 -56 115 0 2 26 -5 58 -16 31 -10 101 -24 154 -30z m-7951
-23 l24 -45 -25 -21 c-65 -52 -80 -70 -80 -93 0 -23 15 -41 80 -93 l25 -21
-24 -45 c-13 -25 -29 -46 -36 -46 -18 0 -62 51 -79 92 -21 49 -21 177 0 226
17 41 61 92 79 92 7 0 23 -21 36 -46z m968 14 c72 -22 259 -115 304 -152 l29
-23 -54 -35 c-117 -78 -275 -144 -385 -163 -36 -6 -47 -3 -77 20 l-35 27 85
75 c46 41 84 76 84 78 0 2 -38 37 -84 78 l-85 75 32 26 c37 30 73 29 186 -6z
m5136 6 l34 -26 -85 -75 c-46 -41 -84 -76 -84 -78 0 -2 38 -37 84 -78 l85 -75
-35 -27 c-39 -30 -65 -29 -184 7 -71 22 -258 115 -303 152 l-29 23 56 37 c116
77 329 163 409 165 10 1 34 -11 52 -25z m858 -1 c41 -43 57 -94 57 -178 0 -46
-6 -90 -16 -113 -17 -41 -61 -92 -79 -92 -7 0 -23 21 -36 46 l-24 45 25 21
c65 52 80 70 80 93 0 23 -15 41 -80 93 l-25 21 24 45 c13 25 29 46 36 46 6 0
23 -12 38 -27z m-6165 -244 l-73 -67 -37 27 c-21 14 -38 29 -38 32 0 8 60 33
118 48 61 17 53 36 -25 60 -92 28 -104 36 -78 55 11 8 29 21 40 29 18 14 24
10 93 -51 l73 -67 -73 -66z m5442 140 c0 -8 -60 -33 -118 -48 -61 -17 -53 -36
26 -60 91 -28 103 -36 77 -55 -11 -8 -29 -21 -40 -29 -18 -14 -24 -10 -93 51
l-73 67 73 66 73 67 37 -27 c21 -14 38 -29 38 -32z m-6997 -37 c54 -19 96 -36
94 -38 -1 -2 -45 -18 -97 -37 -52 -19 -102 -37 -111 -41 -11 -5 -20 3 -32 29
-9 20 -17 42 -17 50 0 8 8 30 17 50 12 26 21 34 32 29 9 -4 60 -23 114 -42z
m8550 13 c21 -44 21 -56 0 -100 -12 -26 -21 -34 -32 -29 -9 4 -59 22 -111 41
-52 19 -96 35 -98 37 -2 2 39 18 90 35 51 17 100 36 108 41 22 14 25 13 43
-25z m-7722 -16 l21 -35 -22 -37 c-12 -20 -25 -37 -29 -37 -15 0 -91 62 -91
75 0 15 79 77 93 72 4 -1 17 -18 28 -38z m6827 10 c23 -17 42 -37 42 -44 0
-15 -79 -77 -93 -72 -4 1 -17 18 -28 38 l-21 35 22 37 c12 20 25 37 29 37 4 0
26 -14 49 -31z m-6229 -22 l52 -23 -55 -23 -56 -23 -31 23 -32 22 29 24 c16
12 32 23 35 23 4 0 30 -10 58 -23z m5645 0 l29 -24 -32 -22 -31 -23 -56 23
-55 23 48 22 c61 28 62 28 97 1z m-6161 -113 c55 -28 192 -118 201 -132 3 -4
-143 -143 -325 -307 -296 -269 -359 -333 -315 -323 11 2 579 512 657 589 15
15 20 12 68 -33 l53 -49 -197 -197 c-213 -212 -390 -400 -384 -406 11 -12 477
-144 757 -216 48 -12 50 -19 23 -95 -11 -31 -24 -49 -32 -48 -8 1 -201 43
-430 93 -228 49 -423 90 -432 90 -9 0 -17 -7 -17 -15 0 -8 3 -15 6 -15 15 0
840 -181 857 -188 16 -6 14 -15 -23 -92 -53 -109 -100 -182 -114 -178 -7 2
-213 122 -459 267 -420 248 -447 266 -447 292 0 15 -5 39 -11 52 -9 21 16 72
247 480 142 251 259 457 261 457 2 0 27 -12 56 -26z m6901 -431 c231 -408 256
-459 247 -480 -6 -13 -11 -37 -11 -52 0 -26 -27 -44 -447 -292 -246 -145 -452
-265 -459 -267 -14 -4 -61 69 -114 178 -37 77 -39 86 -23 92 17 7 842 188 857
188 3 0 6 7 6 15 0 8 -8 15 -17 15 -9 0 -204 -41 -432 -90 -229 -50 -422 -92
-430 -93 -8 -1 -21 17 -32 48 -27 76 -25 83 24 95 279 72 745 204 756 216 6 6
-171 194 -384 406 l-197 197 53 49 c48 45 53 48 68 33 78 -77 646 -587 657
-589 44 -10 -19 54 -315 323 -182 164 -328 303 -325 307 13 20 233 157 255
158 3 0 121 -206 263 -457z m-6044 127 c129 -100 236 -187 238 -193 2 -11
-117 -312 -210 -532 -40 -93 -30 -90 -185 -54 l-95 22 6 36 c4 20 9 115 12
212 l6 176 -50 99 c-28 54 -83 140 -121 191 l-70 92 92 85 91 84 26 -18 c14
-10 131 -100 260 -200z m5287 96 l51 -48 -69 -92 c-38 -50 -93 -136 -121 -190
l-50 -99 6 -176 c3 -97 8 -192 12 -212 l6 -36 -95 -22 c-155 -36 -145 -39
-185 54 -94 221 -212 521 -210 532 2 6 120 102 263 212 l259 201 41 -37 c22
-21 63 -60 92 -87z m-7254 65 c127 -33 129 -34 207 -191 39 -77 70 -142 70
-144 0 -2 -26 7 -57 19 -32 13 -85 29 -118 35 l-60 12 -100 135 c-55 75 -101
140 -103 144 -6 16 83 10 161 -10z m8965 10 c-1 -4 -48 -69 -103 -144 l-100
-135 -60 -12 c-33 -6 -86 -22 -117 -35 -32 -12 -58 -21 -58 -19 0 2 31 67 70
144 78 156 80 158 203 190 75 20 171 26 165 11z m-7396 -271 c29 -41 70 -110
92 -152 35 -69 39 -86 44 -171 4 -83 -11 -277 -24 -312 -4 -10 -45 -3 -177 31
-193 50 -544 152 -566 164 -10 5 34 58 167 197 100 105 223 229 273 277 l93
87 22 -23 c12 -13 46 -57 76 -98z m5983 -92 c279 -284 329 -340 314 -348 -22
-12 -372 -113 -566 -164 -132 -34 -173 -41 -177 -31 -13 35 -28 229 -24 312 4
78 10 103 36 156 37 75 94 163 151 235 l42 53 47 -40 c26 -22 106 -100 177
-173z m-7394 22 c35 -11 86 -32 112 -48 45 -26 53 -37 136 -197 85 -164 88
-172 75 -198 l-15 -27 -27 33 c-15 17 -66 79 -113 137 -71 88 -115 144 -242
308 -13 17 -1 16 74 -8z m8562 8 c-71 -93 -216 -276 -287 -363 -49 -60 -90
-112 -92 -113 -1 -2 -9 9 -17 24 -14 28 -12 34 74 199 83 160 91 171 136 197
46 27 152 66 182 67 9 1 10 -3 4 -11z m-8193 -491 c0 -7 -11 -12 -25 -12 -30
0 -31 3 -8 21 19 13 33 10 33 -9z m7800 -7 c0 -3 -11 -5 -25 -5 -23 0 -33 14
-19 28 6 6 44 -14 44 -23z m-5794 -24 c14 -36 -121 -243 -227 -346 -65 -64
-68 -65 -113 -62 -25 2 -46 7 -46 11 0 4 16 54 35 111 19 57 35 105 35 105 0
1 -45 10 -99 20 -55 10 -105 21 -111 25 -8 5 -6 19 5 48 16 39 19 41 98 62
119 32 158 38 295 39 96 1 124 -2 128 -13z m4026 5 c32 -6 93 -20 137 -31 77
-21 80 -23 96 -62 11 -29 13 -43 5 -48 -6 -4 -56 -15 -111 -25 -54 -10 -99
-19 -99 -20 0 0 16 -48 35 -105 19 -57 35 -107 35 -111 0 -4 -21 -9 -46 -11
-45 -3 -48 -2 -113 62 -106 103 -241 310 -227 346 6 17 195 20 288 5z m-6038
-30 c3 -5 10 -94 15 -197 l9 -189 -33 -55 c-19 -30 -54 -75 -79 -100 -39 -38
-46 -41 -46 -23 0 37 69 497 85 571 5 19 9 21 25 12 10 -5 21 -14 24 -19z
m7822 -58 c22 -121 74 -481 74 -505 0 -20 -5 -17 -46 22 -25 25 -60 70 -79
100 l-33 55 9 190 c8 176 11 191 30 208 12 10 24 15 27 13 3 -3 11 -40 18 -83z
m-7424 -173 c178 -105 326 -195 331 -199 4 -4 0 -22 -9 -40 -21 -42 -15 -133
13 -189 l20 -41 -46 6 c-95 12 -313 73 -423 118 -128 52 -139 55 -145 37 -9
-24 261 -125 438 -162 57 -13 109 -24 116 -26 7 -2 0 -38 -23 -111 -59 -183
-108 -463 -84 -478 6 -4 14 -5 16 -2 3 3 11 52 19 110 8 57 23 145 35 193 24
106 89 304 98 304 4 0 17 -16 29 -34 31 -49 83 -85 140 -98 l50 -12 6 -156 c8
-182 9 -640 2 -640 -8 0 -757 480 -774 496 -6 5 70 100 144 179 35 38 61 73
57 77 -5 5 -42 0 -83 -11 -83 -21 -227 -46 -233 -40 -4 4 -31 484 -42 758 -6
149 -6 164 9 158 9 -3 161 -92 339 -197z m7314 38 c-11 -273 -38 -753 -42
-757 -6 -6 -150 19 -233 40 -41 11 -78 16 -83 11 -4 -4 22 -39 57 -77 74 -79
150 -174 144 -179 -17 -16 -766 -496 -774 -496 -7 0 -6 458 2 640 l6 156 50
12 c57 13 109 49 140 98 12 18 25 34 29 34 9 0 74 -198 98 -304 12 -48 27
-136 35 -193 8 -58 16 -107 19 -110 2 -3 10 -2 16 2 24 15 -25 295 -84 478
-23 73 -30 109 -23 111 7 2 59 13 116 26 177 37 447 138 438 162 -6 18 -17 15
-145 -37 -110 -45 -328 -106 -423 -118 l-46 -6 20 41 c28 56 34 147 13 189 -9
18 -13 36 -9 40 14 13 668 399 677 399 5 0 6 -68 2 -162z m-6464 98 c34 -8 45
-53 29 -114 -14 -51 -91 -167 -166 -250 -32 -35 -55 -66 -52 -69 4 -3 37 2 74
12 75 19 251 31 307 21 19 -4 49 -18 65 -31 28 -24 29 -26 16 -68 -7 -25 -18
-41 -26 -40 -8 1 -61 11 -119 23 -70 14 -147 22 -232 23 -102 2 -128 5 -128
16 0 8 -7 19 -17 26 -15 11 -13 18 19 71 59 97 97 179 129 277 16 50 32 98 34
105 3 7 13 11 22 9 10 -3 30 -8 45 -11z m5363 -92 c35 -105 73 -189 133 -288
32 -53 34 -60 19 -71 -10 -7 -17 -18 -17 -26 0 -11 -26 -14 -128 -16 -85 -1
-162 -9 -232 -23 -58 -12 -111 -22 -119 -23 -8 -1 -19 15 -26 40 -13 42 -12
44 16 68 16 13 46 27 65 31 56 10 232 -2 307 -21 37 -10 70 -15 74 -12 3 3
-20 34 -52 69 -75 83 -152 199 -166 250 -16 61 -5 106 29 114 15 3 32 7 37 9
22 7 28 -4 60 -101z m-5209 57 c21 -6 20 -10 -28 -120 -27 -63 -45 -117 -41
-121 4 -4 61 -13 126 -20 64 -7 117 -16 117 -20 0 -4 -5 -22 -11 -41 -6 -19
-13 -40 -15 -47 -3 -10 -11 -9 -32 6 -46 34 -109 45 -207 38 -49 -4 -107 -10
-127 -15 -21 -5 -38 -7 -38 -5 0 2 25 34 55 71 74 92 108 163 113 234 l4 58
32 -6 c17 -4 40 -9 52 -12z m5046 -39 c5 -72 39 -143 113 -235 30 -37 55 -69
55 -71 0 -2 -17 0 -37 5 -21 5 -78 11 -128 15 -98 7 -161 -4 -207 -38 -21 -15
-29 -16 -32 -6 -2 7 -9 28 -15 47 -6 19 -11 37 -11 41 0 4 53 13 118 20 64 7
121 16 125 20 4 4 -14 58 -41 121 l-49 114 46 12 c25 6 49 12 52 12 4 1 8 -25
11 -57z m-4874 3 c40 -8 75 -15 77 -15 3 0 -55 -181 -60 -188 -6 -6 -95 10
-95 17 0 4 25 36 56 70 33 36 53 66 48 71 -5 5 -33 2 -64 -6 -63 -16 -110 -18
-110 -4 0 5 8 25 17 44 13 28 21 34 37 31 12 -3 54 -12 94 -20z m4745 -10 c9
-20 17 -40 17 -45 0 -14 -47 -12 -110 4 -31 8 -59 11 -64 6 -5 -5 15 -35 48
-71 31 -34 56 -66 56 -70 0 -7 -89 -23 -95 -17 -1 2 -16 44 -33 95 l-30 92 56
11 c32 7 73 16 92 20 19 4 38 8 41 9 3 1 13 -15 22 -34z m-4809 -97 c-35 -60
-57 -78 -95 -78 -43 0 -44 0 -27 46 12 34 24 39 96 43 24 1 31 -2 26 -11z
m4817 6 c29 -5 38 -12 47 -38 17 -45 16 -46 -27 -46 -32 0 -43 6 -63 33 -47
62 -45 65 43 51z m-4377 -185 c171 -23 316 -47 322 -53 15 -14 99 -645 87
-656 -4 -5 -58 -24 -120 -43 l-111 -35 -33 85 c-36 94 -125 252 -167 296 -39
42 -206 138 -304 176 l-86 33 35 111 c40 126 40 127 55 127 6 0 151 -19 322
-41z m4199 34 c3 -5 21 -58 40 -120 l35 -111 -86 -33 c-98 -38 -265 -134 -304
-176 -42 -44 -131 -202 -167 -296 l-33 -85 -111 35 c-62 19 -116 38 -120 43
-12 11 72 642 87 656 6 7 144 30 306 52 320 43 347 46 353 35z m-5286 -87 c1
-1 -9 -30 -23 -64 -38 -94 -26 -112 84 -127 l52 -7 0 -54 c0 -54 0 -54 -31
-54 -60 0 -113 44 -165 136 -42 76 -52 136 -30 188 l16 38 47 -27 c27 -16 49
-29 50 -29z m6153 8 c17 -50 5 -107 -35 -179 -51 -91 -105 -135 -164 -135 -31
0 -31 0 -31 54 l0 54 53 7 c109 15 121 33 83 127 -14 34 -24 63 -23 63 38 25
93 53 98 49 4 -2 13 -20 19 -40z m-6981 -130 l10 -159 -27 -35 c-55 -72 -184
-181 -198 -167 -3 3 3 82 14 176 l20 171 61 56 c33 30 70 71 82 90 12 19 23
33 25 31 2 -2 8 -75 13 -163z m7804 52 l69 -69 19 -161 c22 -186 22 -186 10
-186 -19 0 -128 93 -174 148 l-47 57 5 75 c18 269 16 257 33 230 9 -14 47 -56
85 -94z m-6897 23 c31 -19 34 -25 34 -68 l0 -47 -37 3 c-66 7 -83 13 -83 31 0
24 33 102 44 102 5 0 24 -9 42 -21z m5947 -22 c30 -75 26 -81 -65 -90 l-38 -3
0 47 c0 42 3 49 33 68 17 11 37 21 42 21 6 0 18 -19 28 -43z m-5568 -58 c2 -3
-56 -194 -130 -424 -74 -231 -135 -426 -135 -432 0 -7 7 -13 15 -13 8 0 15 2
15 5 0 7 270 849 274 852 4 5 125 -22 131 -29 3 -2 -13 -67 -35 -145 -44 -157
-119 -453 -148 -584 l-19 -86 86 19 c131 29 427 104 584 148 78 22 143 38 145
35 7 -6 34 -127 29 -131 -3 -4 -845 -274 -852 -274 -3 0 -5 -7 -5 -15 0 -8 6
-15 13 -15 6 0 201 61 432 135 230 74 421 132 424 130 2 -3 6 -73 9 -156 l5
-151 -525 4 -525 3 -44 44 -44 44 -3 525 -4 525 151 -5 c83 -3 153 -7 156 -9z
m5423 -513 l-3 -523 -44 -44 -44 -44 -525 -3 -525 -4 5 151 c3 83 7 153 9 156
3 2 194 -56 424 -130 231 -74 426 -135 433 -135 6 0 12 7 12 15 0 8 -2 15 -5
15 -7 0 -849 270 -852 274 -5 4 22 125 29 131 2 3 67 -13 145 -35 157 -44 453
-119 584 -148 l86 -19 -19 86 c-29 131 -104 427 -148 584 -22 78 -38 143 -35
145 6 7 127 34 131 29 4 -3 274 -845 274 -852 0 -3 7 -5 15 -5 8 0 15 5 15 12
0 9 -250 800 -267 845 -6 15 34 19 190 21 l119 2 -4 -524z m-5080 409 c42 -20
113 -59 158 -87 72 -45 87 -60 132 -132 56 -89 119 -219 128 -265 5 -23 2 -30
-12 -34 -247 -73 -722 -192 -731 -184 -8 9 111 484 184 731 7 24 40 17 141
-29z m4576 28 c74 -255 191 -721 183 -730 -9 -8 -484 111 -731 184 -14 4 -17
11 -12 35 14 73 152 323 195 355 82 61 304 173 343 173 9 0 19 -8 22 -17z
m-3426 -168 c3 -117 -6 -192 -39 -317 -20 -74 -22 -77 -61 -93 -29 -11 -43
-13 -48 -5 -4 6 -15 56 -25 111 -10 54 -19 99 -20 99 0 0 -48 -16 -105 -35
-57 -19 -107 -35 -111 -35 -4 0 -9 21 -11 46 -3 45 -2 48 62 113 98 100 299
235 340 228 12 -2 16 -24 18 -112z m2220 86 c88 -45 200 -128 272 -202 64 -65
65 -68 62 -113 -2 -25 -7 -46 -11 -46 -4 0 -54 16 -111 35 -57 19 -105 35
-105 35 -1 0 -10 -45 -20 -99 -10 -55 -21 -105 -25 -111 -5 -8 -19 -6 -48 5
-39 16 -41 19 -62 96 -11 44 -25 105 -31 137 -10 65 -12 275 -2 285 11 11 21
8 81 -22z m-4979 -203 c1 -37 5 -77 10 -90 5 -14 49 -51 105 -87 53 -35 96
-66 96 -70 0 -3 -33 -14 -73 -23 -39 -10 -103 -33 -140 -51 l-68 -34 -89 41
c-49 23 -92 44 -96 48 -3 4 -3 54 1 111 l7 104 61 41 c34 22 87 66 117 97 l55
56 7 -38 c4 -21 7 -68 7 -105z m7854 -22 l45 -27 7 -105 c4 -58 4 -108 1 -112
-4 -4 -47 -25 -96 -48 l-89 -41 -68 34 c-37 18 -101 41 -140 51 -40 9 -73 20
-73 23 0 4 43 35 96 70 56 36 100 73 105 87 5 13 9 49 9 81 0 32 3 79 6 105
l7 46 72 -69 c40 -38 93 -81 118 -95z m-7637 2 c-30 -35 -65 -76 -78 -91 l-23
-28 -38 26 c-36 25 -38 29 -35 73 l3 46 84 13 c47 7 87 15 89 18 3 3 16 5 29
5 22 0 20 -5 -31 -62z m7319 38 l70 -12 3 -46 c3 -44 1 -48 -35 -73 l-38 -26
-23 28 c-13 15 -49 57 -80 92 l-56 64 44 -8 c25 -4 77 -13 115 -19z m-3611
-226 c54 -104 87 -196 101 -277 6 -36 3 -47 -20 -77 l-27 -35 -75 85 c-41 46
-76 84 -78 84 -2 0 -37 -38 -78 -84 l-75 -85 -27 35 c-23 30 -26 41 -20 77 19
110 85 268 163 385 l35 54 23 -29 c13 -15 47 -75 78 -133z m-475 -155 l201
-259 -37 -41 c-21 -22 -60 -63 -87 -92 l-48 -51 -92 69 c-50 38 -136 93 -190
121 l-99 50 -176 -6 c-97 -3 -192 -8 -212 -12 l-36 -6 -22 95 c-36 154 -37
146 44 181 268 113 523 215 537 213 9 -1 107 -119 217 -262z m1197 176 c120
-49 255 -105 299 -123 93 -40 90 -30 54 -185 l-22 -95 -36 6 c-20 4 -115 9
-212 12 l-176 6 -99 -50 c-54 -28 -140 -83 -191 -121 l-92 -70 -85 92 -84 91
26 37 c115 156 379 489 388 489 6 0 110 -40 230 -89z m-2091 -22 c8 -41 17
-83 20 -95 3 -16 -3 -24 -31 -37 -19 -9 -39 -17 -44 -17 -14 0 -12 47 4 110 8
31 11 59 6 64 -5 5 -35 -15 -71 -48 -34 -31 -66 -56 -70 -56 -7 0 -23 89 -17
95 5 4 183 62 185 61 1 -1 9 -36 18 -77z m2743 16 c6 -6 -10 -95 -17 -95 -4 0
-36 25 -70 56 -36 33 -66 53 -71 48 -5 -5 -2 -33 6 -64 16 -63 18 -110 4 -110
-5 0 -25 8 -44 17 -28 13 -34 21 -31 37 7 32 35 167 35 171 0 3 181 -55 188
-60z m-2968 -132 c7 -65 16 -122 20 -126 4 -4 58 14 121 41 127 55 116 57 132
-24 l6 -32 -58 -4 c-71 -5 -142 -39 -234 -113 -37 -30 -69 -55 -71 -55 -2 0 0
17 5 38 5 20 11 78 15 127 7 98 -4 161 -38 207 -15 22 -16 29 -6 32 7 3 27 9
43 14 52 18 52 18 65 -105z m3051 106 c19 -6 40 -13 47 -15 10 -3 9 -11 -6
-32 -34 -46 -45 -109 -38 -207 4 -49 10 -107 15 -127 5 -21 7 -38 5 -38 -2 0
-34 25 -71 55 -92 74 -163 108 -234 113 l-58 4 6 32 c16 81 5 79 132 24 63
-27 117 -45 121 -41 4 4 13 61 20 126 7 64 16 117 20 117 4 0 22 -5 41 -11z
m-3160 -107 c16 -48 6 -239 -16 -325 -10 -37 -15 -70 -12 -74 3 -3 34 20 69
52 83 75 199 152 250 166 56 15 106 4 113 -24 16 -68 18 -66 -91 -102 -106
-35 -189 -73 -288 -133 -53 -32 -60 -34 -71 -19 -7 10 -18 17 -26 17 -11 0
-14 26 -16 128 -1 85 -9 162 -23 232 -12 58 -22 111 -23 119 -1 8 14 19 38 26
36 11 42 10 62 -8 12 -11 28 -36 34 -55z m3342 37 c-1 -8 -11 -61 -23 -119
-14 -70 -22 -147 -23 -232 -2 -102 -5 -128 -16 -128 -8 0 -19 -7 -26 -17 -11
-15 -18 -13 -71 19 -99 60 -182 98 -288 133 -109 36 -107 34 -91 102 7 28 57
39 113 24 51 -14 167 -91 250 -166 35 -32 66 -55 69 -52 3 4 -2 37 -12 74 -19
75 -31 251 -21 307 4 19 18 49 31 65 24 28 26 29 68 16 25 -7 41 -18 40 -26z
m-3107 -42 c-6 -49 -10 -54 -40 -65 -46 -17 -46 -16 -46 27 0 35 5 43 42 70
23 17 44 29 46 26 2 -2 1 -28 -2 -58z m2792 25 c26 -20 32 -31 32 -63 0 -43
-1 -44 -46 -27 -26 9 -33 18 -38 47 -14 88 -11 90 52 43z m-4833 -69 l137 -88
-64 -7 c-34 -3 -91 -16 -124 -27 l-62 -22 -153 67 c-85 36 -158 70 -163 75 -6
5 16 20 55 38 55 25 87 34 194 55 30 6 32 5 180 -91z m7080 75 c68 -14 181
-66 169 -77 -5 -5 -78 -39 -163 -75 l-153 -67 -62 22 c-33 11 -90 24 -124 27
l-64 7 143 92 c154 99 140 95 254 71z m-3564 -360 c-14 -21 -29 -38 -32 -38
-8 0 -33 60 -48 118 -17 61 -36 53 -60 -25 -28 -92 -36 -104 -55 -78 -8 11
-21 29 -29 40 -14 18 -10 24 51 93 l67 73 66 -73 67 -73 -27 -37z m-3164 59
c149 -94 162 -105 165 -134 2 -18 3 -33 1 -33 -4 0 -332 127 -465 180 -60 24
-108 47 -108 51 0 12 120 37 185 38 59 1 62 0 222 -102z m6454 87 c38 -8 69
-19 69 -23 0 -5 -24 -17 -52 -29 -413 -161 -518 -202 -521 -202 -2 0 -1 15 1
33 3 29 16 40 165 134 153 97 165 103 215 103 29 0 84 -7 123 -16z m-4044
-129 c78 -40 208 -127 251 -169 l23 -22 -87 -93 c-48 -50 -172 -173 -277 -273
-139 -133 -192 -177 -197 -167 -12 22 -114 373 -164 567 -44 172 -44 172 -23
177 61 15 164 23 274 21 120 -2 123 -2 200 -41z m1673 35 c47 -6 92 -13 102
-16 14 -4 11 -24 -28 -177 -50 -193 -152 -544 -164 -566 -5 -10 -58 34 -197
167 -227 217 -365 361 -357 374 12 19 165 127 237 167 41 22 91 45 113 50 54
13 193 13 294 1z m-980 -129 c0 -3 -11 -19 -23 -35 l-24 -29 -22 32 -23 31 23
56 23 55 23 -52 c13 -28 23 -54 23 -58z m-1210 57 c72 -280 204 -746 216 -757
6 -6 192 170 406 384 l197 197 49 -53 c45 -48 48 -53 33 -68 -77 -78 -587
-646 -589 -657 -10 -44 54 19 323 315 164 182 303 328 307 325 25 -16 166
-250 156 -260 -2 -2 -208 -119 -458 -259 -406 -230 -456 -256 -477 -246 -13 6
-37 11 -52 11 -26 0 -44 27 -292 447 -145 246 -265 452 -267 459 -4 14 69 61
178 114 77 37 86 39 92 23 7 -17 188 -842 188 -857 0 -3 7 -6 15 -6 8 0 15 8
15 17 0 9 -41 204 -90 432 -50 229 -92 422 -93 430 -1 8 17 21 48 32 76 27 83
25 95 -23z m2425 23 c31 -11 49 -24 48 -32 -1 -8 -43 -201 -93 -430 -49 -228
-90 -423 -90 -432 0 -9 7 -17 15 -17 8 0 15 3 15 6 0 15 181 840 188 857 6 16
15 14 92 -23 109 -53 182 -100 178 -114 -2 -7 -122 -213 -267 -459 -248 -420
-266 -447 -292 -447 -15 0 -39 -5 -52 -11 -21 -10 -71 16 -477 246 -250 140
-456 257 -458 259 -10 10 131 244 156 260 4 3 143 -143 307 -325 269 -296 333
-359 323 -315 -2 11 -512 579 -589 657 -15 15 -12 20 33 68 l49 53 197 -197
c212 -213 400 -390 406 -384 12 11 144 477 216 757 12 48 19 50 95 23z m-1335
-101 c41 -55 74 -100 75 -100 1 0 34 45 75 100 41 55 77 100 80 100 3 0 23
-17 43 -38 l37 -38 -39 -18 c-22 -9 -54 -35 -71 -56 -32 -41 -103 -185 -116
-234 -7 -28 -8 -27 -29 30 -55 147 -113 233 -176 260 l-39 18 37 38 c20 21 40
38 43 38 3 0 39 -45 80 -100z m-2761 2 c-8 -3 -19 -9 -26 -14 -9 -7 -9 -4 0
16 9 19 15 22 25 13 12 -9 12 -12 1 -15z m5703 -9 c7 -9 4 -9 -16 0 -19 9 -22
15 -13 25 9 12 12 12 15 1 3 -8 9 -19 14 -26z m-3072 -18 c16 -8 40 -30 54
-47 36 -48 100 -185 122 -262 10 -36 23 -66 29 -66 6 0 19 30 29 68 27 93 110
255 147 286 50 42 75 44 114 6 l34 -33 -63 -67 c-76 -81 -141 -170 -193 -267
-31 -57 -42 -70 -51 -61 -9 9 -17 10 -30 2 -15 -10 -22 -1 -55 60 -52 96 -117
185 -193 266 l-63 66 32 32 c36 36 46 38 87 17z m-2493 -178 c97 -153 103
-165 103 -215 0 -58 -27 -192 -39 -192 -4 0 -27 48 -51 108 -53 133 -180 461
-180 465 0 2 15 1 33 -1 29 -3 40 -16 134 -165z m5473 -68 c-51 -129 -101
-258 -112 -286 -12 -29 -24 -53 -29 -53 -12 0 -39 133 -39 192 0 50 6 62 103
215 91 145 105 162 132 165 17 2 31 3 33 2 2 -1 -38 -107 -88 -235z m-4890
224 l156 -6 12 -50 c13 -57 49 -109 98 -140 18 -12 34 -25 34 -29 0 -9 -198
-74 -304 -98 -48 -12 -136 -27 -193 -35 -58 -8 -107 -16 -110 -19 -3 -2 -2
-10 2 -16 15 -24 295 25 478 84 73 23 109 30 111 23 2 -7 13 -59 26 -116 37
-177 138 -447 162 -438 18 6 15 17 -37 145 -45 108 -105 322 -119 423 l-7 47
42 -21 c57 -28 147 -34 190 -13 18 9 36 13 40 9 11 -11 389 -650 396 -670 6
-15 -9 -15 -158 -9 -274 11 -754 38 -758 42 -6 6 19 150 40 233 11 41 16 78
11 83 -4 4 -39 -22 -77 -57 -79 -74 -174 -150 -179 -144 -16 17 -496 766 -496
774 0 7 458 6 640 -2z m4870 2 c0 -8 -480 -757 -496 -774 -5 -6 -100 70 -179
144 -38 35 -73 61 -77 57 -5 -5 0 -42 11 -83 21 -83 46 -227 40 -233 -4 -4
-484 -31 -758 -42 -149 -6 -164 -6 -158 9 7 20 385 659 396 670 4 4 22 0 40
-9 42 -21 133 -15 189 13 l41 20 -6 -46 c-12 -95 -73 -313 -118 -423 -52 -128
-55 -139 -37 -145 24 -9 125 261 162 438 13 57 24 109 26 116 2 7 38 0 111
-23 183 -59 463 -108 478 -84 4 6 5 14 2 16 -3 3 -52 11 -110 19 -57 8 -145
23 -193 35 -106 24 -304 89 -304 98 0 4 16 17 34 29 49 32 85 83 98 141 l13
51 105 4 c189 5 690 7 690 2z m-4555 -57 c15 -110 33 -122 127 -84 34 14 63
24 64 23 0 -1 13 -23 29 -50 l27 -47 -38 -16 c-52 -22 -112 -12 -188 30 -92
52 -136 105 -136 165 0 31 0 31 54 31 l54 0 7 -52z m144 18 c12 -18 21 -37 21
-42 0 -11 -78 -44 -102 -44 -18 0 -24 17 -31 83 l-3 37 47 0 c43 0 49 -3 68
-34z m3424 -3 c-7 -66 -13 -83 -31 -83 -24 0 -102 33 -102 44 0 5 9 24 21 42
19 31 25 34 68 34 l47 0 -3 -37z m147 6 c0 -60 -44 -113 -136 -165 -76 -42
-136 -52 -188 -30 l-38 16 27 47 c16 27 29 49 29 50 1 1 30 -9 64 -23 94 -38
112 -26 127 84 l7 52 54 0 c54 0 54 0 54 -31z m-4381 -484 c97 -150 93 -136
69 -250 -14 -68 -66 -181 -77 -169 -5 5 -39 78 -75 163 l-67 153 22 62 c12 33
24 89 27 124 2 34 6 61 8 59 2 -2 44 -66 93 -142z m5060 -41 l22 -62 -67 -153
c-36 -85 -70 -158 -75 -163 -11 -12 -62 99 -78 169 -24 105 -23 108 74 258
l90 139 7 -64 c3 -34 16 -91 27 -124z m-2555 85 c20 -12 36 -24 36 -28 0 -15
-62 -91 -75 -91 -13 0 -75 76 -75 91 0 7 59 47 72 48 4 1 23 -8 42 -20z m-120
-83 c70 -93 89 -91 174 14 l21 25 45 -24 c25 -13 46 -29 46 -36 0 -18 -51 -62
-92 -79 -23 -10 -67 -16 -113 -16 -84 0 -135 16 -177 57 -37 35 -35 45 10 71
49 29 55 28 86 -12z m-121 -80 c49 -52 99 -69 202 -69 104 0 152 17 203 70
l43 45 344 -194 c190 -106 345 -196 345 -199 0 -4 -107 -62 -237 -129 -131
-68 -316 -163 -411 -212 l-172 -89 -20 46 c-11 25 -31 85 -46 133 -48 162 -50
163 -88 31 -26 -91 -63 -190 -74 -201 -4 -3 -183 85 -397 195 -427 221 -432
224 -425 230 6 5 684 387 688 387 1 0 21 -20 45 -44z m-1866 -108 c-9 -46 -18
-94 -19 -108 -3 -22 -8 -25 -50 -28 -44 -3 -48 -1 -73 35 l-26 38 43 35 c24
19 63 54 88 77 25 23 47 40 49 38 2 -2 -4 -41 -12 -87z m4276 -40 l28 -23 -26
-38 c-25 -36 -29 -38 -73 -35 l-46 3 -12 70 c-6 39 -15 90 -19 115 l-8 44 64
-56 c35 -31 77 -67 92 -80z m-4484 -22 c75 -112 81 -116 172 -116 31 0 77 -3
103 -6 l46 -7 -69 -72 c-38 -40 -81 -93 -95 -118 l-27 -45 -105 -7 c-58 -4
-108 -4 -112 -1 -4 4 -25 48 -48 98 l-42 90 23 41 c30 53 75 187 75 221 0 14
2 26 5 26 2 0 36 -47 74 -104z m4643 24 c9 -39 32 -102 51 -141 l34 -70 -41
-89 c-23 -49 -44 -92 -48 -96 -4 -3 -54 -3 -112 1 l-105 7 -27 45 c-14 25 -57
78 -95 118 l-69 72 46 7 c26 3 73 6 105 6 32 0 68 4 81 9 14 5 51 49 87 105
35 53 66 96 70 96 3 0 14 -32 23 -70z m-4017 -166 c87 -6 89 -7 65 -22 -14 -9
-56 -47 -94 -85 l-69 -69 -161 -19 c-186 -22 -186 -22 -186 -10 0 19 93 128
148 174 l57 47 75 -5 c41 -3 116 -8 165 -11z m3597 -31 c55 -46 148 -155 148
-174 0 -12 0 -12 -187 10 l-163 20 -56 60 c-30 33 -71 70 -90 82 -19 12 -33
23 -31 26 4 3 85 9 297 22 17 1 44 -15 82 -46z m-3159 11 c94 -5 109 -9 122
-27 8 -11 13 -23 10 -25 -9 -9 -538 -92 -587 -92 -20 0 -18 4 17 41 22 23 67
59 100 80 67 43 27 40 338 23z m2756 -18 c31 -19 76 -55 101 -80 39 -41 42
-46 22 -46 -51 0 -578 83 -588 92 -2 3 3 15 13 27 17 20 31 22 183 30 91 4
176 9 189 10 13 0 49 -14 80 -33z m-2576 8 c6 -6 -14 -44 -23 -44 -3 0 -5 11
-5 25 0 23 14 33 28 19z m2092 -19 c0 -14 -2 -25 -5 -25 -9 0 -29 38 -23 44
14 14 28 4 28 -19z m-1672 -232 c27 -47 73 -180 65 -188 -2 -2 -31 17 -63 43
-113 88 -360 285 -392 313 l-33 28 27 15 c26 13 34 10 198 -75 160 -83 171
-91 198 -136z m1615 168 c-33 -28 -280 -225 -393 -313 -32 -26 -61 -45 -63
-43 -8 8 38 141 65 188 27 45 38 53 198 136 163 85 171 88 198 75 l27 -15 -32
-28z m-965 -241 c19 -52 37 -102 41 -111 5 -11 -3 -20 -29 -32 -20 -9 -42 -17
-50 -17 -8 0 -30 8 -50 17 -26 12 -34 21 -29 32 4 9 23 60 42 114 19 54 36 96
38 94 2 -1 18 -45 37 -97z m-463 10 c157 -78 158 -80 191 -207 20 -78 26 -167
10 -161 -4 2 -69 48 -144 103 l-135 100 -12 60 c-6 33 -22 86 -35 118 -12 31
-21 57 -19 57 2 0 67 -31 144 -70z m975 13 c-13 -32 -29 -85 -35 -118 l-12
-60 -135 -100 c-75 -55 -140 -101 -144 -103 -16 -6 -10 83 10 161 33 127 35
129 189 207 75 38 140 69 143 69 4 1 -4 -25 -16 -56z m-663 -169 l112 -56 113
56 c62 31 115 56 117 56 1 0 -6 -26 -17 -57 -10 -32 -24 -102 -30 -155 l-12
-98 -85 -59 -85 -59 -85 59 -86 60 -11 97 c-6 53 -20 123 -30 155 -11 31 -18
57 -16 57 2 0 54 -25 115 -56z"/>
<path d="M5510 10017 c0 -7 26 -31 58 -54 96 -68 226 -187 313 -288 l84 -96
49 58 c80 95 237 244 324 308 77 56 100 85 69 85 -7 0 -38 -18 -67 -40 -65
-49 -248 -208 -258 -225 -4 -7 -32 -39 -62 -73 l-56 -61 -69 80 c-103 118
-338 319 -372 319 -7 0 -13 -6 -13 -13z"/>
<path d="M5392 8518 c-34 -34 6 -90 48 -68 35 19 20 80 -20 80 -9 0 -21 -5
-28 -12z"/>
<path d="M5162 8463 c-22 -8 -34 -41 -22 -63 20 -38 87 -16 78 26 -4 20 -38
43 -56 37z"/>
<path d="M6482 8518 c-34 -34 6 -90 48 -68 35 19 20 80 -20 80 -9 0 -21 -5
-28 -12z"/>
<path d="M6731 8454 c-37 -26 -21 -74 26 -74 29 0 48 33 34 59 -15 27 -35 32
-60 15z"/>
<path d="M5900 8656 c0 -9 7 -16 16 -16 9 0 14 5 12 12 -6 18 -28 21 -28 4z"/>
<path d="M6007 8663 c-12 -11 -8 -23 8 -23 8 0 15 7 15 15 0 16 -12 20 -23 8z"/>
<path d="M5600 8289 c0 -31 173 -245 253 -311 l51 -43 -220 -5 c-186 -4 -219
-7 -219 -20 0 -13 62 -15 500 -15 438 0 500 2 500 15 0 13 -33 16 -219 20
l-220 5 51 43 c80 66 253 280 253 311 0 29 -31 4 -76 -61 -54 -81 -265 -298
-289 -298 -24 0 -235 217 -289 298 -45 65 -76 90 -76 61z"/>
<path d="M5095 8158 c-2 -7 -8 -56 -14 -109 -11 -98 -48 -259 -77 -336 -15
-38 -20 -43 -48 -43 -72 0 -304 73 -416 130 -48 24 -50 25 -50 2 0 -29 173
-100 359 -147 l84 -21 -184 -106 c-102 -58 -185 -113 -187 -122 -2 -9 1 -16 6
-16 5 0 92 48 193 106 101 58 201 116 224 129 223 126 445 259 445 265 0 26
-37 11 -202 -84 -100 -58 -183 -104 -185 -102 -2 2 8 43 22 92 45 155 71 374
45 374 -6 0 -12 -6 -15 -12z"/>
<path d="M6810 8118 c0 -74 25 -217 55 -322 14 -49 24 -90 22 -92 -2 -2 -85
44 -185 102 -165 95 -202 110 -202 84 0 -6 222 -139 445 -265 23 -13 123 -71
224 -129 101 -58 188 -106 193 -106 5 0 8 7 6 16 -2 9 -85 64 -187 122 l-184
106 84 21 c186 47 359 118 359 147 0 23 -2 22 -50 -2 -112 -57 -344 -130 -416
-130 -27 0 -33 5 -47 42 -29 72 -67 240 -80 348 -7 65 -17 105 -24 108 -9 2
-13 -11 -13 -50z"/>
<path d="M5600 7810 c-30 -30 -27 -83 6 -109 15 -12 34 -21 44 -21 10 0 29 9
44 21 52 41 23 129 -44 129 -17 0 -39 -9 -50 -20z"/>
<path d="M6230 7810 c-30 -30 -27 -83 6 -109 15 -12 34 -21 44 -21 10 0 29 9
44 21 52 41 23 129 -44 129 -17 0 -39 -9 -50 -20z"/>
<path d="M5947 7787 c-15 -27 -140 -148 -334 -321 l-42 -37 -233 51 c-128 29
-248 61 -266 71 -18 10 -34 19 -35 19 -1 0 -2 -21 -2 -48 -1 -50 -127 -457
-148 -479 -22 -21 -429 -147 -479 -148 -27 0 -48 -1 -48 -2 0 -1 9 -17 19 -35
10 -18 42 -138 71 -266 l51 -233 -64 -72 c-178 -198 -261 -284 -292 -302 l-34
-21 32 -17 c27 -15 148 -140 321 -334 l37 -42 -51 -233 c-29 -128 -60 -247
-70 -264 l-18 -32 47 -4 c54 -6 460 -134 478 -151 21 -22 147 -429 148 -479 0
-27 1 -48 2 -48 1 0 17 9 35 19 18 10 138 42 266 71 l233 51 72 -64 c198 -178
284 -261 302 -292 l21 -34 17 32 c15 27 140 148 334 321 l42 37 233 -51 c128
-29 247 -60 264 -70 l32 -18 4 47 c6 54 134 460 151 478 18 17 424 145 478
151 l47 4 -18 32 c-10 17 -41 136 -70 264 l-51 233 37 42 c173 194 294 319
321 334 l32 17 -34 21 c-31 18 -114 104 -292 302 l-64 72 51 233 c29 128 61
248 71 266 10 18 19 34 19 35 0 1 -21 2 -48 2 -50 1 -457 127 -479 148 -17 18
-145 424 -151 478 l-4 47 -32 -18 c-17 -10 -136 -41 -264 -70 l-233 -51 -72
64 c-198 178 -284 261 -302 292 l-21 34 -17 -32z m78 -108 c-13 -19 -62 -26
-95 -13 l-33 14 33 35 34 35 33 -32 c18 -17 30 -35 28 -39z m-60 -59 c11 0 37
8 57 19 l37 18 31 -32 32 -33 -23 -43 c-28 -56 -75 -126 -107 -161 -25 -27
-26 -27 -45 -10 -25 22 -88 114 -116 171 l-23 43 32 33 31 32 37 -18 c20 -11
46 -19 57 -19z m-136 -139 c19 -33 56 -86 84 -116 l50 -56 29 28 c38 35 109
134 137 191 l22 42 95 -85 c53 -47 104 -85 114 -85 17 0 200 36 230 45 13 4
15 -11 16 -93 1 -96 18 -207 33 -216 19 -12 185 55 258 104 l31 21 42 -125 41
-125 125 -41 125 -42 -21 -31 c-49 -73 -116 -239 -104 -258 9 -15 120 -32 216
-33 82 -1 97 -3 93 -16 -9 -30 -45 -213 -45 -230 0 -10 38 -61 85 -114 l85
-95 -42 -22 c-59 -30 -125 -76 -176 -123 l-43 -39 28 -30 c35 -37 135 -108
191 -136 l42 -22 -85 -95 c-47 -53 -85 -104 -85 -114 0 -17 36 -200 45 -230 4
-13 -11 -15 -93 -16 -96 -1 -207 -18 -216 -33 -12 -19 55 -185 104 -258 l21
-31 -125 -42 -125 -41 -41 -125 -42 -125 -31 21 c-73 49 -239 116 -258 104
-15 -9 -32 -120 -33 -216 -1 -82 -3 -97 -16 -93 -30 9 -213 45 -230 45 -10 0
-61 -38 -114 -85 l-95 -85 -22 42 c-28 56 -99 156 -136 191 l-30 28 -39 -43
c-47 -51 -93 -117 -123 -176 l-22 -42 -95 85 c-53 47 -104 85 -114 85 -17 0
-200 -36 -230 -45 -13 -4 -15 11 -16 93 -1 96 -18 207 -33 216 -19 12 -185
-55 -258 -104 l-31 -21 -42 125 -41 125 -125 41 -125 42 21 31 c49 73 116 239
104 258 -9 15 -120 32 -216 33 -82 1 -97 3 -93 16 9 30 45 213 45 230 0 10
-38 61 -85 114 l-85 95 42 22 c59 30 125 76 176 123 l43 39 -28 30 c-35 37
-135 108 -191 136 l-42 22 85 95 c47 53 85 104 85 114 0 17 -36 200 -45 230
-4 13 11 15 93 16 96 1 207 18 216 33 12 19 -55 185 -104 258 l-21 31 125 42
125 41 41 125 42 125 31 -21 c73 -49 239 -116 258 -104 15 9 32 120 33 216 1
82 3 97 16 93 30 -9 213 -45 230 -45 10 0 60 38 112 84 73 66 95 81 103 70 6
-7 25 -40 44 -73z m-696 13 c33 -8 34 -18 2 -49 -15 -16 -36 -25 -55 -25 -34
0 -34 -1 -18 51 8 28 16 38 27 35 9 -3 28 -8 44 -12z m1735 -23 c16 -52 16
-51 -18 -51 -30 0 -80 37 -80 59 0 7 44 23 81 30 3 1 11 -16 17 -38z m-1583
-132 c0 -142 -7 -172 -38 -164 -36 10 -181 82 -209 104 -25 20 -25 22 -13 63
9 30 17 42 29 40 40 -7 96 19 122 58 l26 38 41 -12 42 -12 0 -115z m1469 101
c19 -29 36 -42 66 -50 22 -6 47 -10 56 -8 12 2 20 -10 29 -40 12 -41 12 -43
-13 -63 -28 -22 -173 -94 -209 -104 -31 -8 -38 22 -38 165 l0 114 40 12 c22 7
41 13 41 13 1 1 13 -17 28 -39z m-2050 -643 c62 -126 64 -135 29 -144 -15 -4
-80 -8 -142 -8 l-115 0 -12 42 -12 41 38 26 c39 26 65 82 58 123 -2 11 9 19
37 28 53 16 62 7 119 -108z m2678 79 c-7 -40 19 -96 58 -122 l38 -26 -12 -41
-12 -42 -115 0 c-142 0 -172 7 -164 38 10 36 82 181 104 209 20 25 22 25 63
13 30 -9 42 -17 40 -29z m-2872 -26 c0 -19 -9 -40 -25 -55 -31 -32 -41 -31
-49 3 -4 15 -9 34 -12 43 -3 11 5 19 28 26 52 17 58 15 58 -17z m2961 18 c28
-8 38 -16 35 -27 -3 -9 -8 -28 -12 -43 -8 -34 -18 -35 -49 -3 -16 15 -25 36
-25 55 0 34 -1 34 51 18z m-3088 -769 c54 -28 125 -75 159 -107 27 -25 27 -26
10 -45 -22 -25 -114 -88 -171 -116 l-43 -23 -33 32 -32 31 18 37 c24 46 24 68
0 114 l-18 36 31 31 c17 17 32 31 34 31 1 0 22 -10 45 -21z m3243 -10 l31 -30
-18 -37 c-11 -20 -19 -46 -19 -57 0 -11 8 -37 19 -57 l18 -37 -32 -31 -33 -32
-43 23 c-56 28 -126 75 -161 107 -27 25 -27 26 -10 45 28 31 190 136 212 137
2 0 18 -14 36 -31z m-3358 -97 c7 -21 6 -38 -4 -62 l-14 -33 -35 33 -35 34 32
33 c35 36 42 35 56 -5z m3450 -59 c-35 -36 -42 -35 -56 5 -7 21 -6 38 4 62
l14 33 35 -33 35 -34 -32 -33z m-2975 -658 c12 -5 16 -14 12 -29 -10 -35 -83
-180 -104 -208 -20 -25 -22 -25 -63 -13 -30 9 -42 17 -40 29 7 40 -19 96 -57
122 -38 25 -39 26 -29 62 6 20 13 41 15 46 7 10 239 2 266 -9z m2723 -32 l12
-41 -38 -26 c-39 -26 -65 -82 -58 -122 2 -12 -10 -20 -39 -29 -37 -11 -44 -11
-57 4 -38 43 -124 227 -111 239 12 12 88 20 180 19 l99 -2 12 -42z m-2981
-108 c16 -15 25 -36 25 -55 0 -34 1 -34 -51 -18 -28 8 -38 16 -35 27 3 9 8 28
12 44 8 33 18 34 49 2z m3009 -2 c4 -16 9 -35 12 -44 3 -11 -7 -19 -35 -27
-52 -16 -51 -17 -51 22 0 25 7 40 26 55 35 27 41 26 48 -6z m-2217 -400 c4
-16 8 -80 8 -142 l0 -115 -42 -12 -41 -12 -26 38 c-26 39 -82 65 -122 58 -12
-2 -20 10 -29 39 -15 48 -12 52 68 98 47 27 154 74 169 75 4 0 11 -12 15 -27z
m1509 -23 c44 -21 92 -48 106 -59 25 -20 25 -22 13 -63 -9 -30 -17 -42 -29
-40 -40 7 -96 -19 -122 -58 l-26 -38 -41 12 -42 12 0 115 c0 62 4 127 8 142 9
34 17 33 133 -23z m-746 -230 c20 -30 47 -75 59 -99 l23 -43 -32 -33 -31 -32
-37 18 c-20 11 -46 19 -57 19 -11 0 -37 -8 -57 -19 l-37 -18 -31 32 -32 33 23
43 c28 56 75 126 107 161 25 27 26 27 45 10 11 -9 36 -42 57 -72z m-905 5 c32
-31 31 -41 -2 -49 -16 -4 -35 -9 -44 -12 -11 -3 -19 7 -27 35 -16 52 -16 51
18 51 19 0 40 -9 55 -25z m1745 19 c0 -4 -5 -24 -12 -45 -8 -28 -16 -38 -27
-35 -9 3 -28 8 -43 12 -33 7 -34 13 -7 48 15 19 30 26 55 26 19 0 34 -3 34 -6z
m-855 -253 c2 -4 -10 -22 -28 -39 l-33 -32 -34 35 -33 35 33 14 c33 13 82 6
95 -13z"/>
<path d="M5660 7406 c0 -9 29 -54 65 -101 68 -89 155 -231 155 -252 0 -7 -16
-19 -35 -27 -46 -19 -248 -73 -307 -81 l-48 -7 0 108 c1 99 10 205 26 292 5
25 3 32 -9 32 -9 0 -18 -8 -21 -17 -15 -49 -28 -178 -29 -289 -2 -118 -3 -125
-22 -122 -27 4 -38 81 -31 226 4 91 3 112 -8 112 -19 0 -29 -63 -28 -182 0
-54 -2 -98 -4 -98 -3 0 -25 14 -49 30 -55 38 -164 90 -187 90 -42 0 -10 -28
81 -72 110 -53 186 -113 176 -140 -5 -14 -18 -9 -88 32 -74 43 -235 117 -295
135 -19 5 -23 3 -20 -9 2 -10 47 -35 115 -65 138 -59 253 -127 253 -148 0 -20
-253 -273 -273 -273 -21 0 -89 115 -148 253 -30 68 -55 113 -65 115 -12 3 -14
-1 -9 -20 18 -60 92 -221 135 -295 41 -70 46 -83 32 -88 -27 -10 -87 66 -140
176 -44 91 -72 123 -72 82 0 -24 52 -133 90 -188 16 -24 30 -46 30 -49 0 -2
-44 -4 -97 -4 -120 1 -183 -9 -183 -28 0 -11 21 -12 113 -8 144 7 221 -4 225
-31 3 -19 -4 -20 -122 -22 -111 -1 -240 -14 -288 -29 -10 -3 -18 -12 -18 -21
0 -12 7 -14 33 -9 86 16 192 25 291 26 l108 0 -7 -47 c-8 -60 -62 -262 -81
-308 -8 -19 -20 -35 -27 -35 -21 0 -161 86 -252 155 -82 62 -122 80 -113 53 7
-20 168 -139 263 -194 54 -31 84 -54 82 -64 -2 -9 -12 -14 -27 -12 -37 4 -158
66 -218 112 -56 43 -72 48 -72 25 0 -19 75 -74 167 -122 l72 -38 -72 -38 c-91
-47 -167 -103 -167 -122 0 -23 16 -18 72 25 60 46 181 108 218 112 15 2 25 -3
27 -12 2 -10 -28 -33 -82 -64 -95 -55 -256 -174 -263 -193 -9 -28 31 -10 113
52 91 69 231 155 252 155 7 0 19 -16 27 -35 19 -46 73 -248 81 -307 l7 -48
-108 0 c-99 1 -205 10 -291 26 -26 5 -33 3 -33 -9 0 -9 8 -18 18 -21 48 -15
177 -28 288 -29 118 -2 125 -3 122 -22 -4 -27 -81 -38 -225 -31 -91 4 -113 3
-113 -8 0 -19 57 -28 178 -28 56 1 102 -2 102 -4 0 -3 -14 -25 -30 -49 -38
-55 -90 -164 -90 -187 0 -42 28 -10 72 81 53 110 113 186 140 176 14 -5 9 -18
-32 -88 -43 -74 -117 -235 -135 -295 -5 -19 -3 -23 9 -20 10 2 35 47 65 115
59 138 127 253 148 253 20 0 273 -253 273 -273 0 -21 -115 -89 -253 -148 -68
-30 -113 -55 -115 -65 -3 -12 1 -14 20 -9 58 17 213 88 291 133 73 42 87 47
92 33 10 -25 -66 -86 -176 -139 -91 -44 -123 -72 -81 -72 23 0 132 52 187 90
24 16 46 30 49 30 2 0 4 -44 4 -97 -1 -120 9 -183 28 -183 11 0 12 21 8 113
-7 144 4 221 31 225 19 3 20 -4 22 -122 1 -111 14 -240 29 -288 3 -10 12 -18
21 -18 12 0 14 7 9 33 -16 86 -25 192 -26 291 l0 108 48 -7 c59 -8 261 -62
307 -81 19 -8 35 -20 35 -27 0 -21 -87 -163 -155 -252 -61 -80 -81 -122 -52
-113 19 7 138 168 193 263 31 54 54 84 64 82 9 -2 14 -12 12 -27 -4 -37 -66
-158 -112 -218 -43 -56 -48 -72 -25 -72 19 0 75 76 122 167 l38 72 38 -72 c48
-92 103 -167 122 -167 23 0 18 16 -25 72 -46 60 -108 181 -112 218 -2 15 3 25
12 27 10 2 33 -28 64 -82 55 -95 174 -256 194 -263 27 -9 9 31 -53 113 -69 91
-155 231 -155 252 0 7 16 19 35 27 46 19 248 73 308 81 l47 7 0 -108 c-1 -99
-10 -205 -26 -291 -5 -26 -3 -33 9 -33 9 0 18 8 21 18 15 48 28 177 29 288 2
118 3 125 22 122 27 -4 38 -81 31 -225 -4 -91 -3 -113 8 -113 19 0 28 57 28
178 -1 56 2 102 4 102 3 0 25 -14 49 -30 55 -38 164 -90 188 -90 41 0 9 28
-82 72 -110 53 -186 114 -176 139 5 14 19 9 92 -33 78 -45 233 -116 291 -133
19 -5 23 -3 20 9 -2 10 -47 35 -115 65 -138 59 -253 127 -253 148 0 20 253
273 273 273 21 0 89 -115 148 -253 30 -68 55 -113 65 -115 12 -3 14 1 9 20
-17 58 -88 213 -133 291 -42 73 -47 87 -33 92 25 10 86 -66 139 -176 44 -91
72 -123 72 -81 0 23 -52 132 -90 187 -16 24 -30 46 -30 49 0 2 46 5 103 4 120
0 177 9 177 28 0 11 -22 12 -112 8 -145 -7 -222 4 -226 31 -3 19 4 20 122 22
111 1 240 14 289 29 9 3 17 12 17 21 0 12 -7 14 -32 9 -87 -16 -193 -25 -292
-26 l-108 0 7 48 c8 59 62 261 81 307 8 19 20 35 27 35 21 0 163 -87 252 -155
80 -61 122 -81 113 -52 -7 19 -168 138 -263 193 -54 31 -84 54 -82 64 2 9 12
14 27 12 37 -4 158 -66 218 -112 56 -43 72 -48 72 -25 0 19 -75 74 -167 122
l-72 38 72 38 c91 47 167 103 167 122 0 23 -16 18 -72 -25 -60 -46 -181 -108
-218 -112 -15 -2 -25 3 -27 12 -2 10 28 33 82 64 95 55 256 174 263 194 9 28
-33 8 -113 -53 -89 -68 -231 -155 -252 -155 -7 0 -19 16 -27 35 -19 46 -73
248 -81 308 l-7 47 108 0 c99 -1 205 -10 292 -26 25 -5 32 -3 32 9 0 9 -8 18
-17 21 -49 15 -178 28 -289 29 -118 2 -125 3 -122 22 4 27 81 38 226 31 91 -4
112 -3 112 8 0 19 -63 29 -182 28 -54 0 -98 2 -98 4 0 3 14 25 30 49 38 55 90
164 90 188 0 41 -28 9 -72 -82 -53 -110 -114 -186 -139 -176 -14 5 -9 19 33
92 45 78 116 233 133 291 5 19 3 23 -9 20 -10 -2 -35 -47 -65 -115 -59 -138
-127 -253 -148 -253 -20 0 -273 253 -273 273 0 21 115 89 253 148 68 30 113
55 115 65 3 12 -1 14 -20 9 -60 -18 -221 -92 -295 -135 -70 -41 -83 -46 -88
-32 -10 27 66 87 176 140 91 44 123 72 82 72 -24 0 -133 -52 -188 -90 -24 -16
-46 -30 -49 -30 -2 0 -5 46 -4 103 0 120 -9 177 -28 177 -11 0 -12 -22 -8
-112 7 -145 -4 -222 -31 -226 -19 -3 -20 4 -22 122 -1 111 -14 240 -29 289 -3
9 -12 17 -21 17 -12 0 -14 -7 -9 -32 16 -87 25 -193 26 -292 l0 -108 -47 7
c-60 8 -262 62 -308 81 -19 8 -35 20 -35 27 0 21 86 161 155 252 62 82 80 122
53 113 -20 -7 -139 -168 -194 -263 -31 -54 -54 -84 -64 -82 -9 2 -14 12 -12
27 4 37 66 158 112 218 43 56 48 72 25 72 -19 0 -75 -76 -122 -167 l-38 -72
-38 72 c-48 92 -103 167 -122 167 -23 0 -18 -16 25 -72 46 -60 108 -181 112
-218 2 -15 -3 -25 -12 -27 -10 -2 -33 28 -64 82 -55 95 -174 256 -193 263 -7
2 -13 -3 -13 -12z m280 -406 c0 -44 -42 -120 -88 -162 -43 -39 -124 -68 -189
-68 -67 0 -203 81 -203 120 0 19 43 17 62 -2 27 -27 114 -66 171 -77 44 -8 49
-7 87 26 47 40 96 108 106 147 6 24 27 45 47 46 4 0 7 -14 7 -30z m80 20 c10
-5 21 -22 24 -36 10 -39 59 -106 106 -147 38 -33 43 -34 87 -26 57 11 144 50
171 77 19 19 62 21 62 2 0 -39 -136 -120 -203 -120 -65 0 -146 29 -189 68 -46
42 -88 118 -88 162 0 33 3 35 30 20z m-170 -38 c0 -13 -53 -83 -88 -116 -31
-29 -33 -29 -84 -17 -29 6 -71 22 -93 35 l-40 24 30 7 c17 4 82 22 145 40 136
38 130 37 130 27z m370 -32 c58 -15 118 -31 135 -35 l30 -7 -40 -24 c-22 -13
-64 -29 -93 -35 -51 -12 -53 -12 -84 17 -36 34 -88 103 -88 117 0 5 8 6 18 2
9 -3 64 -19 122 -35z m-198 -102 c43 -55 78 -76 162 -98 70 -18 80 -18 133 -4
32 8 75 26 96 40 l37 24 0 -44 c0 -25 5 -69 11 -98 10 -46 20 -62 83 -124 62
-63 78 -73 124 -83 29 -6 73 -11 98 -11 l44 0 -24 -37 c-14 -21 -32 -64 -40
-96 -14 -53 -14 -63 4 -133 11 -41 29 -88 40 -104 24 -34 85 -84 124 -101 l27
-13 -28 -14 c-43 -22 -100 -70 -123 -102 -11 -16 -29 -63 -40 -104 -18 -70
-18 -80 -4 -133 8 -32 26 -75 40 -95 l24 -38 -44 0 c-25 0 -69 -5 -98 -11 -46
-10 -62 -20 -124 -83 -63 -62 -73 -78 -83 -124 -6 -29 -11 -73 -11 -98 l0 -44
-37 24 c-21 14 -64 32 -96 40 -53 14 -63 14 -133 -4 -41 -11 -88 -29 -104 -40
-32 -23 -80 -80 -102 -123 l-14 -28 -13 27 c-17 39 -67 100 -101 124 -16 11
-63 29 -104 40 -70 18 -80 18 -133 4 -32 -8 -75 -26 -95 -40 l-38 -24 0 44 c0
25 -5 69 -11 98 -10 46 -20 62 -83 124 -62 63 -78 73 -124 83 -29 6 -73 11
-98 11 l-44 0 24 38 c14 20 32 63 40 95 14 53 14 63 -4 133 -11 41 -29 88 -40
104 -24 34 -85 84 -124 101 l-27 13 28 14 c43 22 100 70 123 102 11 16 29 63
40 104 18 70 18 80 4 133 -8 32 -26 75 -40 96 l-24 37 44 0 c25 0 69 5 98 11
46 10 62 20 124 83 63 62 73 78 83 124 6 29 11 73 11 98 l0 44 38 -24 c20 -14
63 -32 95 -40 53 -14 63 -14 133 4 41 11 88 29 104 40 34 24 84 85 101 124
l13 27 14 -28 c8 -15 28 -45 44 -65z m-591 -10 c18 -43 15 -145 -6 -194 -21
-52 -80 -112 -133 -136 -52 -23 -154 -28 -199 -9 -35 14 -42 28 -20 37 7 2 56
6 108 7 169 5 201 37 206 206 1 52 5 101 7 108 9 22 23 15 37 -19z m1105 19
c2 -7 6 -56 7 -108 5 -169 37 -201 206 -206 99 -2 121 -6 121 -21 0 -19 -66
-37 -127 -35 -76 2 -135 27 -185 79 -48 51 -69 102 -71 178 -2 82 31 159 49
113z m-1191 -193 c-14 -48 -21 -57 -53 -71 -20 -9 -65 -18 -100 -21 l-63 -5
113 114 113 114 3 -38 c2 -21 -4 -63 -13 -93z m1412 -92 c-21 -2 -63 4 -93 13
-48 14 -57 21 -71 53 -9 20 -18 65 -21 100 l-5 63 114 -113 114 -113 -38 -3z
m-1684 -122 c36 -29 87 -135 87 -183 0 -108 -59 -206 -152 -253 -43 -22 -108
-33 -108 -18 0 18 23 43 46 48 39 10 106 59 147 106 33 38 34 43 26 87 -11 57
-50 144 -77 171 -13 13 -19 28 -15 41 7 26 14 26 46 1z m1830 -1 c4 -13 -2
-28 -15 -41 -27 -27 -66 -114 -77 -171 -8 -44 -7 -49 26 -87 41 -47 108 -96
147 -106 23 -5 46 -30 46 -48 0 -15 -65 -4 -108 18 -93 47 -152 145 -152 253
0 48 51 154 87 183 32 25 39 25 46 -1z m-1822 -197 l12 -53 -39 -40 c-38 -40
-102 -85 -109 -78 -2 2 12 58 30 124 18 66 36 133 40 150 l7 30 24 -40 c13
-22 29 -64 35 -93z m1839 88 c0 -9 15 -70 34 -135 19 -66 33 -122 31 -124 -7
-7 -71 38 -109 78 -35 36 -38 43 -32 78 11 57 57 148 67 132 5 -8 9 -21 9 -29z
m-1912 -424 c93 -47 152 -145 152 -253 0 -67 -81 -203 -120 -203 -19 0 -17 43
2 62 27 27 66 114 77 171 8 44 7 49 -26 87 -41 47 -108 96 -147 106 -23 5 -46
30 -46 48 0 15 65 4 108 -18z m2022 18 c0 -18 -23 -43 -46 -48 -39 -10 -106
-59 -147 -106 -33 -38 -34 -43 -26 -87 11 -57 50 -144 77 -171 19 -19 21 -62
2 -62 -39 0 -120 136 -120 203 0 106 58 205 149 252 41 22 111 34 111 19z
m-2034 -113 c21 -16 52 -42 68 -59 29 -31 29 -33 17 -84 -6 -29 -22 -71 -35
-93 l-24 -40 -7 30 c-11 46 -63 238 -70 258 -10 25 6 21 51 -12z m1989 12 c-7
-20 -59 -212 -70 -258 l-7 -30 -24 40 c-13 22 -29 64 -35 93 -12 51 -12 53 17
84 34 36 103 88 117 88 5 0 6 -8 2 -17z m-1706 -405 c47 -15 120 -84 143 -136
23 -52 28 -154 9 -199 -14 -35 -28 -42 -37 -20 -2 7 -6 56 -7 108 -4 118 -21
163 -74 186 -25 11 -71 18 -132 20 -99 2 -121 6 -121 21 0 10 37 27 75 35 26
6 101 -2 144 -15z m1564 0 c29 -11 35 -26 14 -34 -7 -2 -56 -6 -108 -7 -169
-5 -201 -37 -206 -206 -2 -99 -6 -121 -21 -121 -35 0 -46 156 -17 226 18 45
77 109 119 131 60 31 155 36 219 11z m-1551 -91 c32 -14 39 -23 53 -71 9 -30
15 -72 13 -93 l-3 -38 -113 114 -113 114 63 -5 c35 -3 80 -12 100 -21z m1395
-89 l-112 -113 -3 41 c-2 22 5 65 15 95 17 51 21 55 68 71 28 9 71 17 97 18
l46 0 -111 -112z m-930 -104 c67 -19 125 -69 159 -136 22 -43 33 -108 18 -108
-18 0 -43 23 -48 46 -10 39 -59 106 -106 147 -38 33 -43 34 -87 26 -57 -11
-144 -50 -171 -77 -19 -19 -62 -21 -62 -2 0 21 47 62 102 89 70 35 114 39 195
15z m611 -15 c55 -27 102 -68 102 -89 0 -19 -43 -17 -62 2 -27 27 -114 66
-171 77 -44 8 -49 7 -87 -26 -47 -41 -96 -108 -106 -147 -5 -23 -30 -46 -48
-46 -15 0 -4 65 18 108 33 65 85 111 148 132 81 28 134 25 206 -11z m-586 -87
c43 -46 73 -90 66 -97 -2 -2 -57 12 -123 30 -66 18 -133 36 -149 40 l-29 6 24
17 c29 20 116 51 145 52 13 0 39 -19 66 -48z m547 11 c38 -18 49 -28 40 -34
-8 -5 -21 -9 -29 -9 -9 0 -70 -15 -135 -34 -66 -19 -121 -33 -123 -31 -7 7 23
51 67 98 43 47 47 49 86 43 22 -4 64 -18 94 -33z"/>
<path d="M5889 6687 l-75 -157 -139 94 c-77 52 -142 93 -144 91 -2 -3 2 -77 8
-166 7 -88 10 -163 8 -166 -3 -2 -78 1 -166 8 -89 6 -163 10 -166 8 -2 -2 39
-67 91 -144 l94 -139 -157 -75 -156 -76 156 -75 157 -76 -94 -139 c-52 -77
-93 -142 -91 -144 3 -2 77 2 166 8 88 7 163 10 166 8 2 -3 -1 -78 -8 -166 -6
-89 -10 -163 -8 -166 2 -2 67 39 144 91 l140 94 75 -157 75 -156 75 156 76
157 139 -94 c77 -52 142 -93 144 -91 2 3 -2 77 -8 166 -7 88 -10 163 -8 166 3
2 78 -1 166 -8 89 -6 163 -10 166 -8 2 2 -39 67 -91 144 l-94 139 157 76 156
75 -156 75 -157 75 94 140 c52 77 93 142 91 144 -3 2 -77 -2 -166 -8 -88 -7
-163 -10 -166 -8 -2 3 1 78 8 166 6 89 10 163 8 166 -2 2 -67 -39 -144 -91
l-139 -94 -76 157 -75 156 -76 -156z m341 -121 c147 99 137 106 121 -93 -6
-70 -9 -128 -8 -130 2 -1 60 2 130 8 199 16 192 26 93 -121 l-84 -125 139 -70
139 -70 -139 -69 -139 -69 84 -126 c99 -148 106 -138 -93 -122 -70 6 -128 9
-130 8 -1 -2 2 -60 8 -130 16 -199 26 -192 -122 -93 l-126 84 -69 -139 -69
-139 -70 139 -70 139 -125 -84 c-147 -99 -137 -106 -121 93 6 70 9 128 8 130
-2 1 -60 -2 -130 -8 -199 -16 -192 -26 -93 122 l84 126 -139 69 -139 69 139
70 139 70 -84 125 c-99 147 -106 137 93 121 70 -6 128 -9 130 -8 1 2 -2 60 -8
130 -16 199 -26 192 122 93 l126 -84 69 139 69 139 70 -139 70 -139 125 84z"/>
<path d="M5943 6368 c-6 -7 -20 -32 -32 -55 -12 -24 -25 -43 -29 -43 -5 0 -30
14 -56 30 -32 21 -55 29 -68 24 -19 -6 -20 -12 -14 -75 l6 -69 -69 6 c-63 6
-69 5 -75 -14 -5 -13 3 -36 24 -68 16 -26 30 -51 30 -55 0 -4 -24 -20 -52 -36
-37 -19 -53 -34 -53 -48 0 -14 16 -29 53 -48 28 -16 52 -32 52 -36 0 -4 -14
-29 -30 -55 -21 -32 -29 -55 -24 -68 6 -19 12 -20 75 -14 l69 6 -6 -69 c-6
-63 -5 -69 14 -75 13 -5 36 3 68 24 26 16 51 30 55 30 4 0 20 -24 36 -52 19
-37 34 -53 48 -53 14 0 29 16 48 53 16 28 32 52 36 52 4 0 29 -14 55 -30 32
-21 55 -29 68 -24 19 6 20 12 14 75 l-6 69 69 -6 c63 -6 69 -5 75 14 5 13 -3
36 -24 68 -16 26 -30 51 -30 55 0 4 24 20 53 36 36 19 52 34 52 48 0 14 -16
29 -52 48 -29 16 -53 32 -53 36 0 4 14 29 30 55 21 32 29 55 24 68 -6 19 -12
20 -75 14 l-69 -6 6 69 c6 63 5 69 -14 75 -13 5 -36 -3 -68 -24 -26 -16 -51
-30 -55 -30 -4 0 -20 24 -36 52 -29 54 -52 69 -70 46z m86 -141 c5 -5 34 7 65
27 l56 36 0 -70 0 -70 70 0 70 0 -36 -56 c-20 -31 -32 -60 -27 -65 4 -4 32
-21 61 -37 l53 -29 -38 -17 c-21 -9 -49 -25 -62 -35 l-24 -18 37 -56 36 -57
-70 0 -70 0 0 -70 0 -70 -56 36 c-31 20 -60 32 -65 27 -4 -4 -21 -32 -37 -61
l-29 -53 -17 38 c-9 21 -25 49 -35 62 l-18 24 -56 -37 -57 -36 0 70 0 70 -70
0 -70 0 36 57 37 56 -24 18 c-13 10 -41 26 -62 35 l-38 17 53 29 c29 16 57 33
61 37 5 5 -7 34 -27 65 l-36 56 70 0 70 0 0 70 0 70 57 -36 56 -37 18 24 c10
13 26 41 35 62 l17 38 29 -53 c16 -29 33 -57 37 -61z"/>
<path d="M5296 7729 c-34 -27 -35 -71 -1 -104 29 -30 64 -32 96 -7 33 27 30
78 -5 109 -33 28 -56 29 -90 2z"/>
<path d="M6544 7727 c-35 -31 -38 -82 -5 -109 32 -25 67 -23 96 7 34 33 33 77
-1 104 -34 27 -57 26 -90 -2z"/>
<path d="M4110 7435 c0 -3 9 -23 20 -45 57 -112 130 -344 130 -416 0 -27 -5
-33 -42 -47 -72 -29 -240 -67 -348 -80 -65 -7 -105 -17 -108 -24 -9 -30 210
-5 372 42 49 14 90 24 92 22 2 -2 -44 -85 -102 -185 -95 -165 -110 -202 -84
-202 6 0 139 222 265 445 13 23 71 123 129 224 58 101 106 188 106 193 0 5 -7
8 -16 6 -9 -2 -64 -85 -122 -187 l-106 -184 -21 84 c-47 186 -118 359 -147
359 -10 0 -18 -2 -18 -5z"/>
<path d="M7748 7358 c-42 -99 -64 -164 -93 -277 l-21 -84 -106 184 c-58 102
-113 185 -122 187 -9 2 -16 -1 -16 -6 0 -5 48 -92 106 -193 58 -101 116 -201
129 -224 126 -223 259 -445 265 -445 26 0 11 37 -84 202 -58 100 -104 183
-102 185 2 2 43 -8 92 -22 162 -47 381 -72 372 -42 -3 7 -43 17 -108 24 -108
13 -276 51 -348 80 -37 14 -42 20 -42 47 0 72 73 304 130 416 24 48 25 50 2
50 -14 0 -28 -22 -54 -82z"/>
<path d="M4740 7403 c-47 -60 21 -143 89 -108 46 23 54 66 20 109 -29 36 -80
36 -109 -1z"/>
<path d="M7081 7404 c-34 -43 -26 -86 20 -109 68 -35 136 48 89 108 -29 37
-80 37 -109 1z"/>
<path d="M4527 7190 c-37 -29 -37 -80 -1 -109 43 -34 86 -26 109 20 35 68 -48
136 -108 89z"/>
<path d="M7330 7197 c-14 -7 -31 -25 -38 -40 -22 -45 15 -97 67 -97 34 0 71
39 71 75 0 24 -7 39 -26 54 -31 24 -40 25 -74 8z"/>
<path d="M4201 6634 c-27 -34 -26 -57 2 -90 31 -35 82 -38 109 -5 25 32 23 67
-7 96 -33 34 -77 33 -104 -1z"/>
<path d="M7625 6635 c-30 -29 -32 -64 -7 -96 27 -33 78 -30 109 5 28 33 29 56
2 90 -27 34 -71 35 -104 1z"/>
<path d="M4007 6464 c-4 -4 -7 -104 -7 -223 l0 -216 -68 71 c-96 103 -260 234
-291 234 -29 0 -4 -31 62 -76 80 -54 297 -265 297 -289 0 -24 -217 -235 -297
-289 -66 -45 -91 -76 -62 -76 31 0 245 173 311 253 l43 51 5 -220 c4 -186 7
-219 20 -219 13 0 15 62 15 499 0 480 -3 525 -28 500z"/>
<path d="M7895 6458 c-3 -7 -4 -233 -3 -503 3 -428 5 -490 18 -490 13 0 16 33
20 219 l5 220 43 -51 c66 -80 280 -253 311 -253 29 0 4 31 -61 76 -81 54 -298
265 -298 289 0 24 217 235 298 289 65 45 90 76 61 76 -31 0 -245 -173 -311
-253 l-43 -51 -5 219 c-4 162 -8 219 -17 223 -7 2 -15 -2 -18 -10z"/>
<path d="M4120 6330 c-45 -45 -11 -120 54 -120 37 0 76 36 76 70 0 10 -9 29
-21 44 -26 33 -79 36 -109 6z"/>
<path d="M7701 6324 c-12 -15 -21 -34 -21 -44 0 -10 9 -29 21 -44 41 -52 129
-23 129 44 0 67 -88 96 -129 44z"/>
<path d="M4120 5700 c-45 -45 -11 -120 54 -120 37 0 76 36 76 70 0 10 -9 29
-21 44 -26 33 -79 36 -109 6z"/>
<path d="M7701 5694 c-12 -15 -21 -34 -21 -44 0 -10 9 -29 21 -44 41 -52 129
-23 129 44 0 67 -88 96 -129 44z"/>
<path d="M4025 5420 c-3 -5 41 -91 99 -192 58 -100 104 -183 102 -185 -2 -2
-43 8 -92 22 -162 47 -381 72 -372 43 3 -8 43 -18 108 -25 108 -13 276 -51
348 -80 37 -14 42 -20 42 -47 0 -72 -73 -304 -130 -416 -24 -48 -25 -50 -2
-50 29 0 100 173 147 359 l21 84 106 -184 c58 -102 113 -185 122 -187 9 -2 16
1 16 6 0 5 -48 92 -106 193 -58 101 -116 201 -129 224 -126 223 -259 445 -265
445 -5 0 -12 -4 -15 -10z"/>
<path d="M7765 5228 c-65 -112 -128 -221 -140 -243 -13 -23 -71 -123 -129
-224 -58 -101 -106 -188 -106 -193 0 -5 7 -8 16 -6 9 2 64 85 122 187 l106
184 21 -84 c47 -186 118 -359 147 -359 23 0 22 2 -2 50 -57 112 -130 344 -130
416 0 27 5 33 42 47 72 29 240 67 348 80 65 7 105 17 108 25 9 29 -210 4 -372
-43 -49 -14 -90 -24 -92 -22 -2 2 44 85 102 185 95 165 110 202 84 202 -4 0
-61 -91 -125 -202z"/>
<path d="M4234 5410 c-26 -10 -54 -48 -54 -71 0 -31 39 -69 71 -69 37 0 79 39
79 73 0 48 -53 84 -96 67z"/>
<path d="M7643 5410 c-47 -19 -56 -78 -18 -115 33 -34 77 -33 104 1 27 34 26
57 -1 88 -27 29 -55 38 -85 26z"/>
<path d="M4526 4849 c-36 -29 -36 -80 1 -109 60 -47 143 21 108 89 -23 46 -66
54 -109 20z"/>
<path d="M7322 4863 c-7 -3 -19 -18 -27 -33 -35 -69 48 -137 108 -90 67 53 -1
156 -81 123z"/>
<path d="M4775 4640 c-49 -19 -66 -74 -35 -113 52 -66 154 -2 124 78 -5 13
-55 47 -66 44 -2 0 -12 -4 -23 -9z"/>
<path d="M7105 4638 c-49 -26 -58 -69 -24 -112 29 -36 80 -36 109 1 44 56 -23
145 -85 111z"/>
<path d="M4562 4524 c2 -9 85 -64 187 -122 l184 -106 -84 -21 c-186 -47 -359
-118 -359 -147 0 -23 2 -22 50 2 112 57 344 130 416 130 27 0 33 -5 47 -42 29
-72 67 -240 80 -348 7 -65 17 -105 25 -108 29 -9 4 210 -43 372 -14 49 -24 90
-22 92 2 2 85 -44 185 -102 165 -95 202 -110 202 -84 0 6 -222 139 -445 265
-23 13 -123 71 -224 129 -101 58 -188 106 -193 106 -5 0 -8 -7 -6 -16z"/>
<path d="M7150 4424 c-107 -63 -206 -120 -220 -128 -111 -59 -430 -250 -430
-256 0 -26 37 -11 202 84 100 58 183 104 185 102 2 -2 -8 -43 -22 -92 -47
-162 -72 -381 -42 -372 7 3 17 43 24 108 13 108 51 276 80 348 14 37 20 42 47
42 72 0 304 -73 416 -130 48 -24 50 -25 50 -2 0 29 -173 100 -359 147 l-84 21
184 106 c102 58 185 113 187 122 2 9 -2 16 -10 15 -7 0 -101 -52 -208 -115z"/>
<path d="M5295 4305 c-34 -33 -33 -77 1 -104 34 -27 57 -26 90 2 35 31 38 82
5 109 -32 25 -67 23 -96 -7z"/>
<path d="M6539 4312 c-33 -27 -30 -78 5 -109 33 -28 56 -29 90 -2 34 27 35 71
1 104 -29 30 -64 32 -96 7z"/>
<path d="M5606 4229 c-52 -41 -23 -129 44 -129 67 0 96 88 44 129 -15 12 -34
21 -44 21 -10 0 -29 -9 -44 -21z"/>
<path d="M6236 4229 c-52 -41 -23 -129 44 -129 67 0 96 88 44 129 -15 12 -34
21 -44 21 -10 0 -29 -9 -44 -21z"/>
<path d="M5465 4030 c-16 -26 14 -30 223 -30 l217 0 -71 -68 c-103 -96 -234
-260 -234 -291 0 -29 31 -4 76 62 54 80 265 297 289 297 24 0 235 -217 289
-297 45 -66 76 -91 76 -62 0 31 -173 245 -253 311 l-51 43 220 5 c186 4 219 7
219 20 0 13 -63 15 -497 18 -326 1 -499 -1 -503 -8z"/>
<path d="M4655 8330 c-7 -12 2 -30 16 -30 12 0 12 27 0 35 -5 3 -12 1 -16 -5z"/>
<path d="M4560 8265 c0 -8 7 -15 15 -15 8 0 15 7 15 15 0 8 -7 15 -15 15 -8 0
-15 -7 -15 -15z"/>
<path d="M7254 8326 c-4 -9 -4 -20 0 -23 3 -4 12 -1 18 5 9 9 9 15 0 24 -9 9
-13 7 -18 -6z"/>
<path d="M7340 8265 c0 -8 7 -15 15 -15 8 0 15 7 15 15 0 8 -7 15 -15 15 -8 0
-15 -7 -15 -15z"/>
<path d="M4200 7905 c-15 -18 -6 -61 16 -69 18 -7 49 8 57 28 8 19 -20 56 -42
56 -10 0 -24 -7 -31 -15z"/>
<path d="M4020 7725 c-16 -19 -9 -45 17 -62 19 -13 24 -12 42 6 25 25 26 35 5
55 -19 20 -48 20 -64 1z"/>
<path d="M7666 7899 c-17 -24 -12 -45 14 -59 25 -14 49 -2 56 26 12 48 -41 73
-70 33z"/>
<path d="M7846 7724 c-21 -20 -20 -30 5 -55 18 -18 23 -19 42 -6 26 17 33 43
17 62 -16 19 -45 19 -64 -1z"/>
<path d="M3650 7355 c0 -8 7 -15 15 -15 8 0 15 7 15 15 0 8 -7 15 -15 15 -8 0
-15 -7 -15 -15z"/>
<path d="M3595 7270 c-3 -6 1 -13 10 -16 19 -8 30 0 20 15 -8 14 -22 14 -30 1z"/>
<path d="M8250 7355 c0 -8 7 -15 15 -15 8 0 15 7 15 15 0 8 -7 15 -15 15 -8 0
-15 -7 -15 -15z"/>
<path d="M8305 7269 c-10 -15 1 -23 20 -15 9 3 13 10 10 16 -8 13 -22 13 -30
-1z"/>
<path d="M3479 6779 c-18 -18 -19 -23 -6 -42 8 -12 22 -23 31 -25 42 -9 64 58
27 78 -26 13 -28 13 -52 -11z"/>
<path d="M3412 6538 c-27 -27 -6 -68 35 -68 29 0 48 33 33 60 -12 22 -49 27
-68 8z"/>
<path d="M8398 6789 c-22 -12 -23 -52 -3 -69 19 -16 45 -9 62 17 13 19 12 24
-6 42 -24 24 -29 25 -53 10z"/>
<path d="M8450 6531 c-16 -31 4 -63 37 -59 34 4 52 32 37 56 -16 26 -60 28
-74 3z"/>
<path d="M1900 6407 c0 -34 201 -269 319 -372 l80 -69 -61 -56 c-34 -30 -66
-58 -73 -62 -17 -10 -176 -193 -225 -258 -22 -29 -40 -60 -40 -67 0 -31 29 -8
85 69 64 87 213 244 308 324 l58 49 -96 84 c-101 87 -220 217 -288 314 -39 54
-67 73 -67 44z"/>
<path d="M9963 6363 c-68 -97 -187 -227 -288 -314 l-96 -84 58 -49 c95 -80
244 -237 308 -324 56 -77 85 -100 85 -69 0 7 -18 38 -40 67 -49 65 -208 248
-225 258 -7 4 -39 32 -73 62 l-61 56 80 69 c118 103 319 338 319 372 0 29 -28
10 -67 -44z"/>
<path d="M3262 6018 c6 -18 28 -21 28 -4 0 9 -7 16 -16 16 -9 0 -14 -5 -12
-12z"/>
<path d="M3267 5923 c-12 -11 -8 -23 8 -23 8 0 15 7 15 15 0 16 -12 20 -23 8z"/>
<path d="M8640 6014 c0 -9 5 -14 12 -12 18 6 21 28 4 28 -9 0 -16 -7 -16 -16z"/>
<path d="M8640 5916 c0 -9 7 -16 16 -16 9 0 14 5 12 12 -6 18 -28 21 -28 4z"/>
<path d="M3412 5448 c-27 -27 -6 -68 35 -68 29 0 48 33 33 60 -12 22 -49 27
-68 8z"/>
<path d="M3476 5199 c-17 -25 -12 -45 15 -60 26 -14 59 5 59 34 0 47 -48 63
-74 26z"/>
<path d="M8450 5441 c-16 -31 4 -63 37 -59 34 4 52 32 37 56 -16 26 -60 28
-74 3z"/>
<path d="M8392 5208 c-33 -33 6 -91 47 -69 27 15 32 35 15 60 -17 23 -44 27
-62 9z"/>
<path d="M3595 4671 c-3 -5 -1 -12 5 -16 12 -7 30 2 30 16 0 12 -27 12 -35 0z"/>
<path d="M3650 4575 c0 -8 7 -15 15 -15 8 0 15 7 15 15 0 8 -7 15 -15 15 -8 0
-15 -7 -15 -15z"/>
<path d="M8302 4668 c5 -15 28 -18 29 -3 0 6 -7 12 -17 13 -10 3 -15 -1 -12
-10z"/>
<path d="M8250 4575 c0 -8 7 -15 15 -15 8 0 15 7 15 15 0 8 -7 15 -15 15 -8 0
-15 -7 -15 -15z"/>
<path d="M4031 4264 c-40 -29 -15 -82 33 -70 28 7 40 31 26 56 -14 26 -35 31
-59 14z"/>
<path d="M4206 4084 c-20 -19 -20 -48 -1 -64 19 -16 45 -9 62 17 13 19 12 24
-6 42 -25 25 -35 26 -55 5z"/>
<path d="M7851 4261 c-25 -25 -26 -35 -5 -55 19 -20 48 -20 64 -1 16 19 9 45
-17 62 -19 13 -24 12 -42 -6z"/>
<path d="M7669 4079 c-18 -18 -19 -23 -6 -42 17 -26 43 -33 62 -17 19 16 19
45 -1 64 -20 21 -30 20 -55 -5z"/>
<path d="M5140 3531 c-21 -41 21 -81 58 -55 38 26 22 74 -25 74 -12 0 -27 -9
-33 -19z"/>
<path d="M5396 3477 c-22 -16 -18 -55 7 -71 39 -24 79 44 41 71 -10 7 -21 13
-24 13 -3 0 -14 -6 -24 -13z"/>
<path d="M6722 3538 c-18 -18 -14 -45 10 -62 37 -26 79 14 58 55 -12 21 -50
25 -68 7z"/>
<path d="M6486 3477 c-22 -16 -18 -55 7 -71 39 -24 79 44 41 71 -10 7 -21 13
-24 13 -3 0 -14 -6 -24 -13z"/>
<path d="M4560 3665 c0 -8 7 -15 15 -15 8 0 15 7 15 15 0 8 -7 15 -15 15 -8 0
-15 -7 -15 -15z"/>
<path d="M4655 3620 c-8 -13 4 -32 16 -25 12 8 12 35 0 35 -6 0 -13 -4 -16
-10z"/>
<path d="M7340 3665 c0 -8 7 -15 15 -15 8 0 15 7 15 15 0 8 -7 15 -15 15 -8 0
-15 -7 -15 -15z"/>
<path d="M7252 3616 c1 -10 8 -17 13 -17 15 1 12 24 -3 29 -9 3 -13 -2 -10
-12z"/>
<path d="M5900 3274 c0 -17 22 -14 28 4 2 7 -3 12 -12 12 -9 0 -16 -7 -16 -16z"/>
<path d="M6002 3278 c6 -18 28 -21 28 -4 0 9 -7 16 -16 16 -9 0 -14 -5 -12
-12z"/>
<path d="M5881 2255 c-87 -101 -217 -220 -313 -288 -55 -39 -74 -67 -45 -67 7
0 38 18 67 40 65 49 248 208 258 225 4 7 32 39 62 73 l56 61 69 -80 c103 -118
338 -319 372 -319 31 0 8 29 -69 85 -87 64 -244 213 -324 308 l-49 58 -84 -96z"/>
</g>
</svg>
